<svg width="106" height="130" viewBox="0 0 106 130" fill="none" xmlns="http://www.w3.org/2000/svg">
<path d="M31.6724 68.5468C31.3533 68.7799 31.0179 68.9775 31.0096 69.0475C31.0757 69.1113 31.1385 69.046 30.9409 69.1638C30.7569 69.2713 30.3742 69.5871 30.0348 69.9387C30.0178 69.9565 30.0006 69.9746 29.9832 69.993C29.7561 70.2292 29.5393 70.5061 29.2604 70.8788C28.4887 71.7462 28.068 73.1306 23.9815 76.7171C23.9735 76.7102 23.9662 76.7023 23.9595 76.6934C23.9859 76.6999 24.1052 76.5238 24.1024 76.5051C24.1084 76.4752 24.0208 76.7516 24.0522 77.4017C24.066 77.7278 24.1043 78.1258 24.176 78.6955C24.2117 78.9884 24.2578 79.3155 24.3112 79.8303C24.3363 80.0889 24.3682 80.4035 24.3808 80.8916C24.3512 81.455 24.5252 81.9376 23.9498 83.8813C24.29 82.9359 24.4555 81.3702 24.0868 80.0233C23.731 78.6622 23.1113 77.8271 22.7079 77.3469C21.866 76.4141 21.6064 76.3655 21.5053 76.2789C21.3408 76.1909 21.7549 76.4308 22.2739 76.7561C23.2681 77.3995 25.4557 78.84 26.6034 81.8209C27.9078 85.9392 27.2695 87.7216 27.1413 89.5882C26.9043 91.3706 26.6069 92.8591 26.3644 94.2503C25.8555 96.9792 25.638 99.4301 25.8389 100.563C25.9113 101.08 26.0778 101.598 26.531 102.302C26.5841 102.364 26.6405 102.428 26.7001 102.494C27.7392 103.716 30.4503 105.662 32.3414 107.75C32.3616 107.778 32.3825 107.808 32.4038 107.837C33.3392 109.075 34.8406 110.19 35.9127 110.986C37.7255 112.037 39.7545 112.996 41.8538 113.891C46.8166 116.027 53.2985 116.577 59.5416 116.328C62.2262 116.215 64.9235 115.944 67.5909 115.518C70.0311 115.126 72.5003 114.611 74.7072 113.937C75.1453 113.76 75.5558 113.577 75.8777 113.406C76.0641 113.311 76.1884 113.234 76.3065 113.155C76.4044 113.086 76.4777 113.009 76.3292 113.066C76.7687 112.738 77.2025 112.438 77.6265 112.161C79.5741 110.902 81.2788 110.094 82.6605 109.539C85.1522 108.554 87.7567 107.885 89.9123 107.258C89.9038 107.298 89.7689 107.454 89.8125 107.484C89.8325 107.505 89.8969 107.467 89.9698 107.377C90.2477 106.755 90.4907 104.826 90.4476 102.916C90.504 102.784 90.5617 102.657 90.6203 102.524C91.3524 100.843 91.293 98.5904 91.0787 94.9649C90.9872 93.3803 90.8673 91.5274 90.8008 89.3165C90.7585 87.8878 90.999 87.1411 91.1954 86.5289C91.2533 86.3503 91.3076 86.1825 91.3503 86.0127C91.4966 85.4289 91.2923 84.8314 91.0556 84.1157C90.7492 83.1882 90.3856 82.0667 90.6825 80.5633C90.793 80.0102 90.8851 79.4909 90.9609 79.0027C91.4911 76.0699 90.3314 74.9992 89.571 74.3531C89.3039 74.1318 89.0535 73.9445 88.8382 73.7218C88.1724 73.0206 87.364 71.6054 86.6458 70.184C86.3856 69.6518 85.8347 68.9473 85.1725 68.0954C84.8705 67.779 84.5202 67.6708 84.1191 67.6233C83.8313 67.5927 83.4574 67.4066 82.7498 67.2035C82.0237 66.992 80.9585 66.7895 79.6409 66.7173C76.253 66.5514 74.014 66.2603 72.345 65.9224C71.8571 65.8251 71.4027 65.7234 70.9483 65.6135C70.488 65.5018 69.9975 65.3676 69.4757 65.2051L71.027 65.5556C70.0547 65.5471 69.0147 65.5237 67.9383 65.4937C66.072 65.4436 64.1583 65.3775 62.7085 65.3882C59.0074 64.8598 55.2715 64.2168 51.7275 63.6465C50.378 63.4317 49.1505 62.9785 48.2144 62.3753C48.169 62.3768 48.0334 62.3631 47.9879 62.3624C47.5075 62.1249 47.0459 61.8456 46.6297 61.527C44.9089 60.246 44.6651 58.6899 45.0799 57.4674C45.4915 56.2055 46.6758 55.3137 47.7355 54.4862C48.0266 54.2788 48.3375 54.0886 48.676 53.9176L48.4942 53.9072C49.8327 53.3783 51.3269 53.1637 52.7784 53.2314C56.6989 53.4285 60.4492 53.6598 64.2407 53.8619C66.8125 54.0023 69.374 54.1396 71.95 54.2898C72.2738 54.3378 73.1883 54.5009 73.4861 54.6368C75.0107 55.1653 76.631 55.538 78.4643 55.8648C81.339 56.5551 84.9303 56.1574 90.0207 59.3458C90.5113 59.6904 90.9885 60.0788 91.4374 60.5059C92.1575 61.0941 92.8094 61.771 93.3632 62.4797C94.4639 63.6499 96.1558 65.233 97.3804 66.9109C98.6267 68.5918 99.2441 70.294 99.5896 71.6978C99.8322 72.6744 99.9728 73.5428 100.164 74.3928C100.266 74.8428 100.399 75.4707 100.507 76.2084C100.632 77.0445 100.724 78.0323 100.74 79.0884C100.788 81.088 100.861 83.6189 100.734 86.0325C100.654 87.5149 100.469 89.2587 100.3 90.9469C100.06 93.3619 99.8369 95.6521 99.9952 96.8179C100.276 98.8475 100.194 101.258 99.9548 103.514C99.7384 105.65 99.313 107.679 99.1579 109.018C98.9452 110.59 98.4198 112.179 96.3013 114.139C95.4691 114.869 94.3202 115.572 92.9741 115.978C92.3759 116.139 91.7168 116.321 90.9855 116.537C89.0755 117.099 87.7367 117.326 86.621 117.537C85.0638 117.832 83.8886 118.066 82.5533 119C81.9298 119.443 81.3444 119.888 80.8374 120.303C79.7165 121.024 79.1903 121.198 78.5335 121.464C77.9065 121.701 77.3431 121.866 76.8273 121.982C75.9686 122.176 75.0977 122.409 74.128 122.644C72.8816 122.947 71.5778 123.223 70.352 123.316C69.3499 123.392 68.4988 123.267 67.7411 123.151C67.5097 123.114 67.2865 123.078 67.0702 123.048C66.2795 123.163 65.5106 123.266 64.725 123.365C64.6038 123.42 64.4761 123.48 64.342 123.543C63.6644 123.855 62.8336 124.232 61.7665 124.465C60.076 124.832 58.5614 124.77 56.9658 124.662C55.7228 124.576 54.4352 124.462 52.9486 124.466C51.9341 124.469 50.7694 124.517 49.6059 124.527C47.8749 124.546 46.1297 124.465 44.9472 124.16C44.5066 124.047 44.1431 123.815 43.7972 123.582C43.7957 123.581 43.7942 123.579 43.7928 123.578C43.7692 123.562 43.7455 123.546 43.722 123.531C42.0798 123.264 40.4232 122.899 38.7577 122.373C37.5871 122.008 36.4103 121.622 35.2287 121.199C34.9846 121.143 34.7373 121.083 34.4923 121.022C33.2946 120.724 32.1174 120.382 31.2734 120.26C30.3569 120.118 28.2996 119.313 25.9987 117.829C25.3629 117.414 24.7072 116.941 24.056 116.391C23.5696 116.027 23.027 115.656 22.4972 115.323C21.9618 114.986 21.5805 114.448 21.1645 113.862C20.7756 113.315 20.3589 112.732 19.7404 112.203C19.4302 111.938 19.0584 111.671 18.6559 111.36C18.3021 111.086 17.9231 110.776 17.5499 110.404C17.2079 110.057 16.5473 109.153 15.8501 107.779C15.422 106.933 14.9935 105.903 14.6668 104.784C14.5438 104.472 14.4326 104.161 14.3297 103.84C13.507 101.228 13.4009 98.877 13.4162 96.7593C13.2966 96.2565 13.1403 95.8219 12.9267 95.4709C12.7736 95.2189 12.5855 94.9988 12.3944 94.7726C12.1344 94.465 11.8678 94.1444 11.676 93.7263C11.526 93.3999 11.4959 93.0347 11.6018 92.8114C11.6512 92.707 11.7291 92.632 11.7996 92.5648C11.8803 92.4878 11.9521 92.4196 11.9625 92.3269C11.9698 92.26 11.9296 92.1847 11.8812 92.092C11.804 91.9438 11.7046 91.7509 11.7359 91.49C11.8521 90.5168 12.0421 89.4817 12.1831 88.6106C12.3454 87.6369 12.4202 86.8614 12.3675 86.6461C12.3576 86.5247 12.304 86.4863 12.6365 87.2202C13.3373 88.8526 14.5373 89.4633 14.5206 89.3532C14.5346 89.2987 14.3695 89.1678 13.6337 88.6632C13.2461 88.3631 12.7096 88.1032 11.6168 86.8754C11.0955 86.2533 10.358 85.2398 9.95103 83.6724C9.52859 82.1169 9.72545 80.3414 10.1332 79.2297C9.76074 80.4673 9.84317 80.8531 9.82812 81.1016C9.83434 81.3535 9.85145 81.4154 9.85944 81.4475C9.89498 81.5132 9.82107 81.0437 9.72447 80.5895C9.62663 80.1136 9.50313 79.5501 9.39998 78.9486C9.14617 77.5098 9.03541 75.7824 9.45241 74.2434C9.53514 73.9363 9.80441 73.572 10.1659 73.1425C10.4232 72.8347 10.7271 72.4947 11.0536 72.111C11.688 70.1782 12.9078 68.2614 14.374 66.8733C14.4061 66.8039 14.4403 66.7327 14.4751 66.6611C14.4755 66.6598 14.4759 66.6585 14.4763 66.6572C14.5075 66.5928 14.5399 66.5275 14.5736 66.4613C14.4532 65.7125 14.1938 64.8729 15.3809 64.096C15.6982 63.8856 16.0414 63.8228 16.3529 63.7631C16.6596 63.703 16.9371 63.6437 17.1542 63.4057C17.4011 63.1349 17.5503 62.6921 17.7443 62.1799C18.015 61.4642 18.3877 60.5895 19.2199 59.948C19.2765 59.9045 19.3381 59.8579 19.4023 59.8089C20.0053 59.3496 20.9928 58.6277 22.2679 58.1839C23.442 57.3015 24.8786 56.5173 26.4034 56.0384C28.6732 55.3568 30.2363 55.3178 31.6044 55.1811C32.438 55.1113 33.177 55.0496 33.844 54.967C36.5043 54.6002 39.6756 53.9518 42.928 53.6645C44.9735 53.4737 47.0288 53.9005 48.4777 54.8074C49.9383 55.7145 50.6791 56.9806 50.6794 58.2702C50.6745 59.5648 49.957 60.8017 48.8111 61.828C47.66 62.853 46.1917 63.5944 44.5968 63.9986C42.0356 64.6271 39.5097 65.5655 36.3229 66.483C36.242 66.5052 36.1617 66.5269 36.0819 66.5481C35.8937 66.6145 35.7067 66.6779 35.5231 66.7375C34.1614 67.1785 33.0365 67.6901 32.1926 68.2015C32.0006 68.3183 31.8253 68.4344 31.6724 68.5468Z" fill="#BE592C"/>
<path d="M73.2708 55.4701C63.5019 53.9277 53.7331 52.3852 44.5874 54.0329C35.4418 55.6805 27.2154 60.5649 22.0778 67.1943C12.0344 80.154 14.5719 95.6674 16.9051 104.1C19.3066 112.78 29.864 116.997 36.2481 118.824C38.1995 120.113 42.079 121.422 48.0385 122.201C50.913 122.466 53.4838 122.466 56.1325 122.466" stroke="#BE592C" stroke-width="2" stroke-linecap="round"/>
<path d="M73.2708 54.6911C77.8982 55.7194 85.6806 59.077 94.2459 65.0326C100.464 69.3564 98.9784 84.9715 98.7213 101.191C98.59 109.475 96.6491 113.102 93.8096 115.953C88.3993 118.29 83.9278 119.607 81.8556 119.996C80.8117 120.129 79.7834 120.129 78.724 120.129" stroke="#BE592C" stroke-width="2" stroke-linecap="round"/>
<path d="M14.0656 81.9567C9.95236 67.0463 6.80514 54.2237 5.11857 40.6494C2.64986 20.78 4.70958 7.95796 6.26372 6.66089C7.59976 5.54586 9.38368 5.35604 11.3234 5.22361C17.5375 4.79936 20.7963 14.1667 25.2133 20.2586C32.7308 30.4871 39.5082 42.9903 41.0585 46.9984C42.0946 49.464 43.637 52.8059 45.2262 57.0282" stroke="#BE592C" stroke-width="2" stroke-linecap="round"/>
<path d="M63.1436 53.9121C79.7289 38.8771 90.1132 29.5445 97.0075 27.1607C106.872 23.7498 100.022 49.9859 98.3357 54.547C97.9423 55.4624 97.6852 56.2336 97.5528 57.7877C97.4203 59.3419 97.4203 61.6556 97.4203 64.0393" stroke="#BE592C" stroke-width="2" stroke-linecap="round"/>
<path d="M79.503 119.349C79.2459 119.864 78.9888 120.378 77.3139 120.9C75.639 121.422 72.5541 121.936 68.7798 122.201C65.0055 122.466 60.6352 122.466 56.1325 122.466" stroke="#BE592C" stroke-width="2" stroke-linecap="round"/>
<path d="M34.3866 80.8677C34.4778 80.8552 34.5507 80.8308 34.6071 80.7935C34.9328 81.2103 34.7615 81.8034 34.6811 82.1837C34.6796 82.1917 34.6781 82.1997 34.6765 82.2077C34.6536 82.3108 34.6554 82.4084 34.6596 82.5223C34.6728 82.7971 34.6774 83.1459 34.4563 84.0231C34.5202 84.2541 34.5823 84.4856 34.6426 84.7233C35.2697 87.2779 36.1577 90.2512 37.2678 94.0908C37.2915 94.1349 37.3155 94.1799 37.3397 94.2253C37.809 95.0971 38.4106 96.3182 38.5065 97.2633C38.6184 98.3394 38.6062 99.1895 38.5538 99.8953C38.552 99.9854 38.5487 100.072 38.5444 100.155C38.6984 101.677 38.582 102.7 38.5375 103.509C38.4595 104.289 38.5323 104.872 38.3069 104.603L36.0585 102.555C36.8425 103.017 37.6675 103.423 38.5312 103.763C39.2801 104.058 40.0575 104.303 40.8581 104.495C41.5952 104.671 42.3504 104.81 43.1189 104.915C43.5866 104.865 44.0385 104.781 44.4574 104.699C45.0463 104.584 45.5704 104.474 45.9922 104.473C47.008 104.471 48.1295 104.839 48.9819 105.108C49.1212 105.152 49.2528 105.193 49.3744 105.229C50.0779 105.223 50.7854 105.207 51.4987 105.187C51.5404 105.243 51.5824 105.302 51.625 105.361C52.1561 106.106 52.9014 106.173 54.0819 106.28C54.2295 106.293 54.3845 106.307 54.5475 106.324L54.3193 106.307C54.6993 106.324 55.1372 106.35 55.6191 106.403C56.0639 106.451 56.273 106.73 56.457 106.959C56.5099 107.026 56.558 107.088 56.6083 107.139C56.7789 107.314 56.9792 107.137 57.2042 106.927C57.5002 106.655 57.8521 106.328 58.3066 106.643C59.7435 107.644 60.4113 106.996 60.9069 106.507C61.0549 106.364 61.1833 106.234 61.3179 106.163C61.755 105.932 62.3675 106.174 62.8277 106.502C63.198 106.762 63.9374 106.516 64.5021 106.198C64.7184 106.078 65.0003 106.077 65.3412 106.076C65.6901 106.076 66.0987 106.076 66.5306 105.941C67.6292 105.602 68.2112 105.436 68.682 105.304C68.8152 105.266 68.9396 105.232 69.0641 105.196C69.459 105.082 69.9452 104.989 70.4401 104.895C71.0313 104.782 71.6318 104.667 72.0893 104.513C73.2732 104.678 74.4589 104.881 75.6453 105.084C76.2551 105.189 76.8399 105.78 77.2712 106.754C77.7022 107.729 77.9449 109 77.9449 110.317C77.9449 111.635 77.7022 112.906 77.2711 113.881C76.8396 114.855 76.2542 115.447 75.6433 115.552C74.4132 115.761 73.182 115.969 71.9498 116.134C70.4464 116.335 68.9464 116.471 67.4381 116.464C66.3848 116.459 65.3302 116.421 64.2743 116.356C64.1655 116.349 64.057 116.342 63.9488 116.334C63.0578 116.651 62.1642 116.935 61.5377 117.032C61.0156 117.112 60.6413 116.933 60.3199 116.779C60.102 116.674 59.901 116.58 59.7023 116.591C59.5947 116.597 59.4506 116.614 59.2706 116.635C58.5482 116.719 57.3061 116.858 56.1854 116.506C55.6808 116.349 55.1131 116.052 54.5566 115.764C54.329 115.643 54.0944 115.524 53.8851 115.419C53.8333 115.405 53.6701 115.415 53.6191 115.399C53.1398 115.118 52.7237 114.922 52.4598 114.972C51.8041 115.097 51.0886 114.863 50.4503 114.653C49.8432 114.454 49.3086 114.277 48.9737 114.462C48.5725 114.682 48.2664 114.541 47.8072 114.329C47.4906 114.182 47.1007 114.002 46.5534 113.88C45.9228 113.739 45.4911 113.496 45.1267 113.288C44.6131 112.995 44.231 112.773 43.5723 112.978C42.8395 113.205 42.0772 113.292 41.5274 113.079C41.2764 112.983 40.9783 112.937 40.6655 112.886C40.253 112.819 39.8156 112.742 39.4474 112.533C39.1445 112.362 38.9353 112.048 38.7549 111.77C38.6985 111.684 38.6448 111.601 38.5913 111.526C38.3351 111.465 38.0794 111.403 37.8222 111.341C37.7701 111.369 37.7147 111.402 37.6567 111.434C37.3665 111.599 37.0045 111.798 36.6109 111.832C35.9877 111.884 35.5362 111.589 35.0742 111.27C34.7134 111.021 34.3451 110.758 33.8608 110.62C33.5402 110.528 33.154 110.481 32.7656 110.427C32.2196 110.055 30.9616 109.246 30.7743 108.613C30.7601 108.593 30.746 108.573 30.7321 108.553C30.0731 107.605 29.7438 106.793 29.7253 106.259C29.72 106.057 29.849 105.868 29.981 105.692C29.9819 105.691 29.9827 105.69 29.9836 105.689C29.9925 105.677 30.0013 105.666 30.0102 105.654C29.7051 104.544 29.5192 103.642 29.2903 102.956C29.2421 102.9 29.1943 102.846 29.1473 102.796C28.9173 102.546 28.6924 102.38 28.4099 102.354C28.3617 102.349 28.3159 102.342 28.2726 102.335C28.0204 102.21 27.7949 101.925 27.5256 101.6C27.3169 101.346 27.084 101.07 26.8256 100.86C26.6747 100.737 26.7669 100.525 26.8554 100.295C26.9388 100.082 27.0211 99.8596 26.9058 99.6967C26.8483 99.6157 26.7435 99.5482 26.6302 99.474C26.5306 99.4092 26.4238 99.3383 26.3396 99.2539C26.2617 99.1758 26.2463 98.9242 26.2204 98.5954C26.2048 98.3933 26.1824 98.1558 26.1431 97.917C25.7847 97.3956 25.4206 96.8586 25.0564 96.2945C24.8666 96.2306 24.6447 96.1999 24.3846 96.2135C24.198 96.2233 23.9846 96.2556 23.7666 96.2891C23.4699 96.3344 23.1629 96.3804 22.8965 96.3694C22.6884 96.3608 22.5743 96.2888 22.6131 96.1878C22.6313 96.1407 22.6818 96.0879 22.7274 96.0402C22.7797 95.9853 22.8263 95.9369 22.8121 95.9098C22.8018 95.8902 22.747 95.8897 22.6805 95.8886C22.5742 95.8868 22.4368 95.8837 22.3958 95.8028C22.2426 95.5006 22.1227 95.1296 22.0057 94.7566C21.8766 94.3447 21.7508 93.9303 21.5884 93.6259C21.405 93.2824 21.3732 92.6953 21.3515 92.1002C21.3367 91.6868 21.3254 91.2673 21.2665 90.9265C21.2081 90.591 21.0034 90.2879 20.8069 89.9856C20.5705 89.6214 20.3484 89.2642 20.4138 88.8854C20.4271 88.8088 20.598 88.6732 20.8129 88.5058C20.9653 88.3871 21.1398 88.2518 21.2968 88.1102C21.1908 87.6923 21.1011 87.2713 21.0257 86.8407C20.996 86.8312 20.9657 86.8213 20.9348 86.8115C20.9341 86.8114 20.9334 86.8113 20.9327 86.8112C20.2378 86.5984 19.277 86.2396 19.6774 85.4423C19.7795 85.2406 20.0043 85.0907 20.207 84.9578C20.4061 84.8266 20.5853 84.7143 20.6085 84.5807C20.6348 84.4294 20.4818 84.2743 20.3168 84.0995C20.085 83.8533 19.8296 83.5736 20.0134 83.2498C20.026 83.2278 20.0398 83.2042 20.0537 83.1796C20.1845 82.9458 20.3821 82.6054 20.8108 82.2659C20.8485 81.7549 20.9061 81.2571 20.9819 80.7503C21.0485 80.0691 21.1768 79.4489 21.336 78.8842C21.9238 76.8608 22.8297 75.4895 23.621 74.3584C24.013 73.8098 24.783 73.5767 25.8097 73.6291C26.837 73.688 28.0742 73.9199 29.3063 74.3123C30.5387 74.7008 31.6186 75.4261 32.3151 76.2898C33.0145 77.1458 33.3109 77.9642 33.2333 78.5035C33.0998 79.3834 33.0867 80.0988 33.2066 80.5125C33.2281 80.5376 33.2492 80.5613 33.2691 80.5834C33.4169 80.7486 33.7704 80.8758 34.136 80.8821C34.2199 80.8837 34.3044 80.8791 34.3866 80.8677Z" fill="#BE592C"/>
<path d="M79.4367 98.3758C79.4305 99.4599 79.4186 99.0172 79.4121 98.774C79.412 98.7701 79.4118 98.7661 79.4117 98.7621C79.4102 98.7045 79.4087 98.6895 79.407 98.6732C79.4029 98.6343 79.3974 98.5815 79.3858 97.8905C79.3824 97.9159 79.3791 97.9298 79.3757 97.9298C79.3394 97.9298 79.3031 97.0284 79.2668 95.949C79.2663 95.9546 79.2658 95.9603 79.2654 95.9661C79.2563 96.078 79.245 96.2164 79.2379 95.8209C79.2288 95.3179 79.2227 94.8513 79.2177 94.4485C79.1888 93.58 79.16 92.8039 79.1311 92.4832C79.1221 92.3826 79.1131 92.3276 79.104 92.3276C79.0957 92.3276 79.0874 92.3621 79.079 92.4268C79.0742 92.6627 79.0696 92.943 79.0653 93.2026C79.0593 93.5675 79.054 93.8916 79.0495 93.9973C79.0389 94.2521 79.0268 93.85 79.0179 93.5513C79.0164 93.5025 79.015 93.4562 79.0137 93.4163C79.0066 93.5642 78.9995 93.7226 78.9924 93.8845C78.9919 93.7945 78.9914 93.7005 78.9909 93.6043C78.9849 92.4027 78.9774 92.4181 78.9656 92.4404C78.9605 92.4501 78.9546 92.4607 78.9476 92.3738C78.9431 92.3178 78.9408 91.8414 78.9389 91.4526C78.9383 91.3383 78.9378 91.2314 78.9373 91.145C78.9355 90.8491 78.9336 91.1689 78.9313 91.5466C78.9284 92.0366 78.9249 92.6252 78.9203 92.0935C78.9055 90.3992 78.899 91.5487 78.8941 92.4182C78.8926 92.6733 78.8913 92.9037 78.89 93.0317C78.8856 93.4467 78.8795 93.0356 78.8748 92.4712C78.8711 92.0237 78.8637 92.4673 78.858 93.0317C78.8559 93.2452 78.853 93.2505 78.8497 93.2556C78.8461 93.2609 78.8421 93.2657 78.8378 93.5051C78.8268 94.1102 78.821 94.4035 78.8163 94.6382C78.8149 94.7051 78.8137 94.7661 78.8125 94.8296C78.8085 95.0305 78.8037 95.1959 78.7987 95.3628C78.7928 95.5626 78.7868 95.7655 78.7823 96.0362C78.7705 95.7497 78.7586 95.3952 78.7468 95.0416C78.7408 94.8579 78.7349 93.8239 78.7306 92.1191C78.7263 90.413 78.7239 88.1884 78.7239 85.8829C78.7239 83.5774 78.7263 81.3529 78.7306 79.6467C78.7349 77.942 78.7408 76.9062 78.7468 76.7226C78.759 76.3566 78.7713 75.9905 78.7835 75.6989C78.7984 75.3437 78.8133 75.099 78.8282 75.099C78.8386 75.099 78.849 75.154 78.8595 75.2528C78.8605 75.263 78.8616 75.2742 78.8627 75.2853C78.8714 74.7176 78.8802 74.2013 78.8863 74.0172C78.8914 73.8653 78.8951 74.1683 78.8983 74.4274C78.9005 74.6057 78.9024 74.7635 78.9043 74.7384C78.9054 74.725 78.9068 74.6899 78.9086 74.6479C78.9156 74.4761 78.9276 74.1845 78.9386 74.7384C78.9434 74.9843 78.9491 75.4687 78.9544 75.9313C78.9621 76.5928 78.9693 77.2093 78.9729 77.02C78.9793 76.6872 78.9866 76.9689 78.9931 77.2182C78.9992 77.4561 79.0046 77.6638 79.0077 77.2797C79.0113 76.8207 79.0144 77.0078 79.0191 77.2849C79.0223 77.4771 79.0262 77.7117 79.0316 77.8061C79.0378 77.9151 79.0422 78.2368 79.0459 78.5102C79.0511 78.8951 79.0551 79.1845 79.061 78.6521C79.0675 78.0606 79.0743 77.6842 79.0797 77.8711C79.0821 77.9562 79.0849 77.9355 79.0878 77.9138C79.0917 77.885 79.0957 77.8553 79.0995 78.0676C79.1025 78.2425 79.105 78.6901 79.1073 79.0862C79.108 79.2097 79.1086 79.3277 79.1093 79.4314C79.1117 79.4257 79.1141 79.4173 79.1166 79.4041C79.117 79.332 79.1174 79.2522 79.1178 79.1699C79.12 78.7568 79.1226 78.2501 79.1259 77.9975C79.1312 77.5979 79.1357 77.8482 79.1406 78.1137C79.1443 78.3205 79.1482 78.5363 79.1527 78.459C79.1558 78.4062 79.1593 78.2232 79.1627 78.042C79.1679 77.7728 79.1729 77.5079 79.1765 77.6762C79.1778 77.7394 79.1789 78.0204 79.18 78.3C79.18 78.3017 79.18 78.3034 79.18 78.3052C79.1801 78.3241 79.1802 78.3427 79.1803 78.3616C79.1888 78.1474 79.1974 77.9113 79.206 77.6626C79.2067 77.5903 79.2075 77.5191 79.2082 77.4489C79.2119 77.1062 79.2154 76.7732 79.2177 76.3005C79.2202 75.788 79.2265 75.4901 79.2331 75.1759C79.2374 74.9702 79.2419 74.7578 79.2455 74.4735C79.2477 74.3074 79.2497 74.597 79.2518 74.8957C79.2537 75.1743 79.2557 75.4603 79.2579 75.3896C79.259 75.3541 79.2602 75.2342 79.2615 75.1059C79.2626 74.9929 79.2637 74.8733 79.265 74.8C79.2661 74.7321 79.2687 74.8898 79.2719 75.0905C79.2739 75.2145 79.2762 75.3546 79.2786 75.4699C79.285 75.2894 79.2913 75.1164 79.2977 74.9555C79.299 74.7016 79.3002 74.372 79.3011 73.9489C79.3017 73.6453 79.3023 73.2824 79.3028 72.9115C79.3036 72.4067 79.3044 71.885 79.3055 71.4691C79.3064 71.1441 79.3074 71.0145 79.3081 71.1495C79.3084 71.2124 79.3087 71.3311 79.3089 71.4383C79.3092 71.5612 79.3094 71.6705 79.3097 71.6673C79.3099 71.6649 79.3101 71.5778 79.3103 71.4725C79.3107 71.3043 79.3113 71.0872 79.3121 71.0794C79.3151 71.0507 79.3185 71.1202 79.3219 71.1888C79.3256 71.2651 79.3293 71.3391 79.3322 71.2743C79.3354 71.2016 79.3401 71.5247 79.3447 71.8468C79.348 72.0715 79.3512 72.2951 79.354 72.3868C79.3568 72.4767 79.3596 72.298 79.3624 72.1236C79.3657 71.9143 79.3688 71.7121 79.3715 71.9955C79.3721 72.053 79.3728 72.4032 79.3736 72.8414C79.3742 73.152 79.3749 73.5071 79.3757 73.8344C79.3791 73.8344 79.3826 73.8487 79.386 73.8754C79.3862 73.8279 79.3863 73.7795 79.3864 73.7301C79.3864 73.729 79.3864 73.7278 79.3864 73.7267C79.3892 72.6122 79.3931 71.0877 79.3985 71.9972C79.3999 72.2284 79.4008 72.6554 79.4016 73.0397C79.4023 73.4171 79.403 73.7548 79.404 73.8258C79.4052 73.9063 79.4065 73.6745 79.408 73.4225C79.4101 73.0686 79.4124 72.6733 79.4147 73.0414C79.4148 73.0665 79.415 73.0941 79.4152 73.1217C79.4169 73.3836 79.4194 73.7709 79.4218 74.5504C79.4292 74.7585 79.4365 75.0022 79.4438 75.2682C79.4561 75.7117 79.4683 76.2173 79.4805 76.7226C79.4865 76.9713 79.4922 78.0329 79.4964 79.7322C79.5006 81.4339 79.503 83.6209 79.503 85.8829C79.503 88.1448 79.5006 90.3304 79.4964 92.032C79.4922 93.7314 79.4865 94.7928 79.4805 95.0416C79.4708 95.4425 79.4611 95.8439 79.4514 96.2139C79.4509 96.2609 79.4504 96.3064 79.4499 96.3489C79.4461 96.6659 79.4426 97.3026 79.4391 97.94C79.4383 98.0865 79.4375 98.2332 79.4367 98.3758Z" fill="#BE592C"/>
<path d="M69.6314 88.6437C69.4336 85.8599 69.3694 81.4837 68.8506 76.9833C68.8954 77.3519 69.0227 78.1419 69.5735 79.2224C70.0995 80.2931 71.1467 81.4959 72.0648 82.1347C73.9824 83.4194 74.4237 83.0586 73.152 82.8432C71.9553 82.5611 70.6809 82.3598 69.438 82.2121C69.319 82.1984 69.1992 82.185 69.0784 82.1719C67.4876 81.9895 65.8516 81.929 63.2523 81.7252C62.3955 81.6531 61.424 81.5631 60.2121 81.3843C56.313 80.8157 49.9684 80.0073 38.6693 79.682C37.1089 79.7428 35.5574 79.8303 34.1597 79.9554C33.4667 80.0174 32.8123 80.0907 32.3292 80.1628C32.0958 80.197 31.9038 80.2344 31.9082 80.2351C31.9173 80.2328 31.9658 80.2261 32.1889 80.1622C32.3074 80.1274 32.4649 80.079 32.6951 79.9952C32.9795 79.8899 33.363 79.7406 33.9233 79.4503C34.0795 79.3701 34.2687 79.2493 34.4442 79.1047C34.8198 78.8033 35.0513 78.4364 35.0683 78.3882C35.0938 78.3283 34.9716 78.5715 34.8673 79.0599C34.6403 80.043 34.5311 81.8658 34.6686 83.8818C34.9567 88.1296 35.8916 92.3135 37.4377 98.2998C37.2235 97.2644 36.3712 95.5228 35.5336 94.6119C34.6985 93.6582 34.1654 93.3612 34.0009 93.2526C33.6729 93.0802 34.325 93.4507 35.066 93.7504C36.6387 94.4091 38.7613 95.1578 40.8932 95.9003C45.1682 97.3811 49.6571 98.9025 54.0966 100.463C58.5124 102.031 63.0207 102.984 67.4461 103.207C69.646 103.319 71.8359 103.243 73.847 102.976C74.8453 102.844 75.814 102.659 76.6143 102.453C77.0112 102.352 77.3646 102.243 77.5779 102.172C77.6824 102.139 77.7457 102.115 77.6959 102.147C77.6627 102.169 77.6191 102.193 77.4762 102.282C77.3466 102.365 77.1238 102.498 76.7056 102.825C76.1134 103.303 75.7763 103.785 75.6639 103.99C75.547 104.205 75.61 104.17 75.7215 103.931C75.9631 103.443 76.3462 102.241 76.8636 100.56C76.9384 100.402 76.9583 100.551 76.9977 100.481C77.0296 100.421 76.988 100.074 76.6642 99.4736C77.2452 100.323 77.6567 100.413 77.4184 100.245C77.2094 100.077 76.537 99.7377 75.6702 99.44C73.9059 98.8225 71.4403 98.3122 68.8396 97.9198C68.3401 97.8635 67.8269 97.81 67.2984 97.7587C64.0235 97.4383 60.2611 97.2271 56.2797 96.9467C45.1376 96.173 35.7974 90.9573 30.3312 86.8729C30.0856 86.6905 29.8434 86.5081 29.6042 86.3256C28.7303 85.6953 27.6436 84.8028 26.5796 83.1731C25.4988 81.5674 24.7086 79.0345 24.805 76.8492C25.09 72.3511 26.8541 70.6788 27.7203 69.5665C29.6548 67.5154 30.7308 67.1029 31.7487 66.5457C33.7164 65.5984 35.1853 65.2574 36.7101 65.0001C51.3994 63.844 57.604 70.2747 62.6446 74.6783C62.773 74.8027 62.899 74.9278 63.0226 75.0538C71.8155 83.6415 69.4813 95.5586 67.9931 101.185C67.3027 104.398 65.2456 107.062 62.734 108.609C60.2269 109.98 56.8258 111.713 51.369 108.887C42.4883 102.534 45.4636 94.0961 44.9886 94.6101C45.5262 97.1884 46.206 97.2796 46.1608 97.3334C46.1816 97.3249 45.8962 97.0352 45.5335 96.7398C44.784 96.1211 43.6952 95.3663 42.557 94.6253C40.2611 93.1341 37.7069 91.6204 35.1348 90.098C26.2495 84.5869 15.8275 79.0567 8.83733 68.4244C1.71743 58.5357 3.1742 46.984 2.32801 39.8124C2.31677 39.6915 2.30518 39.5706 2.29322 39.4498C1.4562 29.8032 -0.0710721 21.1068 0.201317 9.6691C0.317839 8.38467 0.515205 6.6722 1.8192 4.56518C3.05617 2.40321 5.93235 0.845534 7.05483 0.563688C7.74357 0.336126 8.54928 0.109365 9.70673 0.0318403C10.7 -0.0238328 12.0573 0.0267801 13.642 0.686668C15.2284 1.31913 16.7493 2.71779 17.5023 3.99896C21.0263 9.67227 23.7483 15.475 26.3876 21.0854C27.8273 24.1649 29.4734 27.2518 31.213 30.3511C33.2749 33.7425 35.3916 37.0102 37.4462 40.1236C38.4057 41.5786 39.3455 43.0004 40.2627 44.3895C42.4319 47.6762 44.4792 50.7808 46.3474 53.7247C49.048 58.5779 49.1902 61.4552 49.8423 63.3942C50.1135 64.4469 50.2208 65.5936 50.1378 66.7074C49.6271 72.2657 45.653 75.0121 43.001 75.9819C40.1693 77.0119 37.787 76.8495 35.8576 76.4631C29.924 75.3602 23.219 71.6978 19.2213 66.2869C15.1452 61.0422 13.5943 54.7609 12.7882 50.8531C12.6166 50.1393 12.5071 49.4551 12.4452 48.7399C12.4148 48.3788 12.3955 48.0203 12.3947 47.5801C12.3957 47.3496 12.3962 47.1391 12.4236 46.7288C12.4312 46.6231 12.4412 46.4941 12.4616 46.3107C12.4751 46.1934 12.4847 46.1064 12.5177 45.8926C12.5837 45.613 12.4854 45.6474 12.9295 44.2786C13.038 43.9835 13.1764 43.6146 13.4846 43.0458C13.6419 42.7603 13.8437 42.4218 14.1572 42.0032C14.3154 41.7932 14.4983 41.5677 14.7356 41.3121C15.3074 40.7077 16.1606 39.9117 17.6402 39.2611C19.0828 38.6018 21.2884 38.3121 23.1451 38.8056C25.0192 39.2724 26.312 40.2381 27.094 40.9984C27.2938 41.1927 27.4666 41.3791 27.6201 41.5573C27.7512 41.7109 27.7612 41.7254 27.8274 41.8074C27.9373 41.9452 28.0357 42.0772 28.1246 42.2028C28.3026 42.4543 28.4439 42.6814 28.5625 42.8874C29.0264 43.7087 29.186 44.2106 29.3149 44.6011C29.3759 44.7948 29.42 44.9568 29.4557 45.099C29.4914 45.2432 29.4948 45.2613 29.5115 45.3354C29.5392 45.4609 29.5604 45.5692 29.5779 45.6661C29.6128 45.8594 29.6337 46.0081 29.6497 46.135C29.6951 46.5078 29.7016 46.6961 29.7079 46.8083C29.7193 47.0621 29.7183 47.1697 29.7184 47.2905C29.6564 48.2363 29.849 49.7834 30.1775 51.2479C30.4796 52.6183 30.8874 53.9953 31.3218 55.2671C33.5908 60.9196 37.0841 66.8896 40.7844 70.9076C41.006 71.1378 41.1217 71.1871 40.9949 71.0786C40.8827 70.9728 40.4752 70.7628 40.2247 70.6983C40.0168 70.7423 39.9534 70.8479 40.0753 70.9454C40.3117 71.1462 41.1754 71.2287 42.238 71.1743C47.8121 70.8831 55.7821 68.5231 63.3689 62.1691C63.6798 61.8927 63.9875 61.6037 64.2638 61.3264C64.7833 60.7972 65.3067 59.9819 65.8303 58.1127C66.495 56.1704 66.298 53.8818 68.5201 48.8172C69.5738 46.7293 70.9608 44.8638 72.3659 43.3043C76.8419 38.6356 78.727 37.7988 80.2112 36.576C80.3395 36.4642 80.4664 36.3553 80.5921 36.2489C81.224 35.7144 81.8282 35.2363 82.4354 34.7563C84.5245 33.1216 86.3851 31.1163 89.1311 29.0005C90.5001 27.9647 92.0743 26.9018 94.189 26.0033C95.5556 25.4306 98.3895 25.1606 100.618 26.3443C102.812 27.4784 103.738 28.9337 104.326 29.9203C105.422 31.959 105.597 33.2317 105.778 34.6407C106.022 36.865 105.86 39.3657 105.262 41.7079C103.484 48.0581 101.561 51.5076 100.49 54.9364C99.1799 58.3248 99.3255 61.5268 96.1511 66.2962C91.8308 71.3009 89.3766 72.2465 87.0476 74.0439C85.4366 75.1522 84.0062 76.0807 82.5178 76.9129C80.9665 77.7794 79.1905 78.6336 77.3494 79.4594C76.5296 79.7926 75.5383 80.3245 73.2396 80.3603C70.9443 80.6369 66.689 78.2499 65.7273 75.9899C64.5713 73.8675 64.5793 72.6634 64.4885 71.7406C64.4421 70.8265 64.5023 70.1841 64.5731 69.6106C64.9008 67.4007 65.3976 66.1292 66.1735 64.4942C67.6515 61.5687 69.8114 58.6864 72.0404 56.6639C73.3939 55.3805 75.4516 53.7372 76.3216 52.8545C76.5307 52.6444 76.695 52.4786 77.0133 52.1962C77.2698 51.9804 77.508 51.7473 78.2258 51.3042C78.2249 51.3042 78.439 51.1771 78.6063 51.0909C78.7886 50.9958 79.0047 50.8909 79.2834 50.7788C79.8475 50.5711 80.6324 50.2427 82.1783 50.2552C83.6414 50.2066 86.3679 51.1415 87.7628 53.1052C88.5299 54.1626 88.6614 54.6216 88.8906 55.2559C89.0821 55.8462 89.1689 56.358 89.2123 56.7917C89.336 58.5093 89.0507 59.1513 88.9212 59.6716C88.7712 60.1592 88.6212 60.4815 88.5994 60.5345C88.3999 60.9824 88.2596 61.2264 88.129 61.4557C88.0199 61.644 87.9609 61.7402 87.8802 61.8701C87.8058 61.9899 87.7221 62.1198 87.6573 62.2191C87.6002 62.3069 87.5424 62.3945 87.4834 62.4828C87.0015 63.199 86.6167 63.7337 86.1792 64.3361C85.3498 65.4761 84.5047 66.5966 83.6658 67.6939C81.9736 69.9042 80.2447 72.0791 78.6473 74.0308C76.8782 76.1861 74.2227 78.8814 70.7602 81.8726C67.7184 84.4558 64.1935 87.3307 59.3038 90.0238C57.5227 90.9675 55.5023 91.5021 53.6728 91.6583C47.0614 91.954 43.8739 89.8992 41.0055 88.6216C38.2255 87.2052 36.124 85.8384 34.2796 84.6027C30.6239 82.1186 28.0527 80.1098 25.8044 78.3796C25.314 77.996 24.8549 77.6283 24.3979 77.2527C22.9358 76.0505 21.6113 74.8691 20.3193 73.6285C16.2426 69.7178 11.6203 64.1357 8.35276 57.1673C7.22032 54.741 6.24536 52.1914 5.53756 49.3257C4.78789 46.1172 4.82742 43.2386 5.22421 40.5448C5.4329 39.1908 5.72983 37.882 6.23016 36.4331C6.49032 35.6975 6.78185 34.9413 7.31085 33.9405C7.59866 33.4134 7.90788 32.8528 8.57189 31.9883C8.94024 31.525 9.37259 30.9903 10.2367 30.2425C11.2862 29.5536 12.3284 27.9371 17.2726 27.5648C19.6801 27.4612 22.9672 28.0963 25.5986 29.7803C28.2458 31.4345 29.8386 33.5635 30.8108 35.2033C34.1292 42.1144 33.4355 45.3537 33.8266 48.7175C33.9432 51.7737 34.254 55.0467 34.2831 55.0492C36.5566 62.0561 38.9965 70.2861 40.7966 73.0805C39.6109 71.5083 38.1521 70.8097 37.4627 70.5738C36.7245 70.3241 36.4704 70.3446 36.4068 70.3439C36.3012 70.3903 37.3127 70.4346 38.3154 70.3775C39.3568 70.3289 40.5643 70.2318 41.797 70.1399L38.8144 71.2849C42.1251 69.8989 45.0671 68.5079 47.4208 67.4288C47.7838 67.2645 48.1305 67.1086 48.4534 66.9724C48.5536 66.8328 48.8956 66.4555 49.0131 66.3302C54.9591 63.1675 57.9098 64.7648 58.8845 66.4316C59.9471 68.2617 58.0504 71.285 57.1399 74.403L57.5609 73.9199C57.3452 74.49 57.0908 75.0677 56.8052 75.6443C54.9616 79.3706 51.713 83.0524 47.6157 86.0647C47.1268 86.3369 45.698 86.9198 45.1462 87.0127C42.3526 87.7886 39.8212 88.7953 34.719 88.5849C32.9166 88.315 29.4978 88.3532 25.9935 84.1238C19.9088 75.0568 18.6881 68.4074 15.8707 61.5457C14.0284 55.7747 14.3054 52.6509 13.8807 49.4943C13.7277 47.9945 13.5391 46.6312 13.3174 45.7551C13.2124 45.3244 13.091 45.0263 13.0758 45.0413C13.0703 45.0429 13.1647 45.4594 13.8895 46.1937C14.7992 47.2202 16.9166 47.8442 17.577 47.7615C22.0378 47.3823 22.6377 46.0095 23.427 45.5327C24.0514 44.975 24.2978 44.647 24.4948 44.4004C24.8594 43.9194 24.9428 43.745 25.0255 43.6065C25.1629 43.3576 25.1548 43.3611 25.1543 43.3904C25.139 43.4698 25.0823 43.7276 25.0602 43.9621C25.004 44.4478 25.0705 44.8921 25.1178 44.954C26.7588 51.3176 31.9426 58.2998 38.3072 63.4994C41.5671 66.2023 44.78 68.7988 47.7765 70.7836C49.3876 71.8558 50.9939 72.7315 52.0093 73.0983C52.5032 73.2872 52.8207 73.3192 52.6656 73.305C52.5409 73.2878 51.7636 73.3275 51.0296 73.7172C56.0055 71.1796 61.8433 65.9141 66.885 60.5889C67.7307 59.6933 68.5445 58.8067 69.3594 57.8901C70.256 56.7356 71.1325 55.5642 71.9245 54.4405C72.3255 53.872 72.6988 53.3226 72.9864 52.8596C73.0991 52.6769 73.2814 52.3569 73.1048 52.6017C73.0521 52.6897 72.9167 52.8639 72.6038 53.5593C72.513 53.8051 72.1883 54.3917 71.9235 55.8942C71.8154 56.6841 71.632 57.798 72.0433 59.7491C72.153 60.2347 72.3107 60.7706 72.5444 61.3456C72.8025 61.9495 72.9969 62.4178 73.6561 63.3802C74.8271 65.1091 76.9175 66.612 78.796 67.1924C82.6875 68.3167 84.5358 67.3612 85.5923 67.055C86.1302 66.8508 86.5017 66.665 86.7995 66.5062C86.9362 66.4334 87.1144 66.3301 87.1554 66.3056C87.1957 66.2818 87.2343 66.2588 87.2712 66.2364C87.5661 66.0569 87.7669 65.917 87.927 65.8019C88.2421 65.573 88.3988 65.439 88.5105 65.3454C88.5986 65.2711 88.6226 65.2515 88.6579 65.222C88.7195 65.171 88.7359 65.1602 88.7286 65.1744C86.146 67.7997 85.4247 68.4358 84.7738 69.3932C84.1589 70.275 83.6795 71.2303 83.2211 72.3935C83.2891 72.2871 83.2882 72.3315 83.3176 72.2992C83.3426 72.2596 83.3953 72.2083 83.4663 71.7228C83.4959 71.4661 83.5444 71.1095 83.4901 70.3461C83.3693 69.5752 83.4558 68.3529 81.8704 65.8163C81.0822 64.5999 79.557 63.0986 77.7581 62.2604C75.9491 61.3909 74.2466 61.2134 73.0756 61.2396C70.7481 61.3476 69.9696 61.8256 69.3803 62.0465C69.7548 61.8627 70.1191 61.6851 70.4748 61.5126C76.1103 58.8005 80.1232 57.2251 82.2548 56.0924C82.9759 55.7442 83.4191 55.3577 83.0722 55.8383C82.5569 56.6276 82.8145 56.4805 82.9901 55.8638C83.2188 55.1936 83.5976 53.6427 84.2153 51.3468C84.3307 50.924 84.4559 50.4768 84.5928 50.0076C86.0384 44.9415 88.5028 38.3867 87.9762 36.3338C88.0454 36.6577 87.9201 36.8194 88.6146 38.2915C89.0294 39.0021 89.6586 40.4016 92.1233 41.9052C94.6277 43.5142 98.5249 43.3293 99.9718 42.6785C98.3056 43.1796 95.3243 45.1191 93.2302 47.1929C93.0987 47.32 92.9679 47.449 92.8378 47.5801C88.4198 52.1693 84.374 54.8357 83.4763 56.3193C83.5176 55.9996 83.1741 56.6441 82.897 57.5525C81.8702 60.8803 80.3806 67.9144 75.3705 72.4421C70.9921 76.3508 67.2777 78.32 64.867 79.8516C59.1683 83.3783 52.1398 85.9668 44.9881 87.0296C42.6001 87.3018 39.2223 88.0865 34.588 86.3634C31.6719 85.2025 29.7372 83.2977 28.5008 81.8615C23.9215 76.3369 21.5074 71.5097 19.6078 68.5813C16.975 64.2824 15.3159 60.3875 14.0075 53.5307C13.7162 51.7828 13.4466 49.8191 13.5044 47.2905C13.5055 47.36 13.5053 47.4223 13.5143 47.606C13.5182 47.6746 13.5268 47.8467 13.5556 48.0917C13.583 48.2971 13.5985 48.4973 13.7298 49.0414C13.7922 49.284 13.8731 49.5869 14.0604 50.0521C14.156 50.2858 14.2795 50.5624 14.473 50.9076C14.5702 51.0801 14.6855 51.2702 14.8299 51.4807C14.9021 51.5859 14.9819 51.6964 15.0706 51.8118C15.1151 51.8697 15.1619 51.9287 15.2111 51.9889C15.2367 52.0201 15.2585 52.0464 15.2897 52.0834C15.3539 52.1593 15.4215 52.2363 15.4946 52.3159C16.0709 52.938 16.9864 53.7511 18.4514 54.298C19.8939 54.8628 21.8516 54.905 23.2866 54.4323C24.7463 53.9769 25.67 53.2544 26.2679 52.6952C26.4073 52.565 26.5879 52.3755 26.6366 52.3214C26.6858 52.2679 26.7324 52.2157 26.777 52.1644C26.8661 52.062 26.9466 51.9639 27.0202 51.8701C27.5973 51.1203 27.8071 50.6474 27.9757 50.2858C28.1306 49.9401 28.2309 49.6378 28.2683 49.5211C28.3044 49.4089 28.3325 49.3126 28.3562 49.2269C28.4034 49.0559 28.4335 48.9262 28.4573 48.8165C28.5018 48.6065 28.511 48.5432 28.528 48.4416C28.559 48.2437 28.5635 48.1913 28.574 48.1012C28.5891 47.9592 28.594 47.8799 28.5977 47.8181C28.6099 47.5806 28.6041 47.5247 28.6018 47.4506C28.5949 47.3218 28.5844 47.2654 28.5738 47.2076C28.552 47.0984 28.5274 47.0176 28.4884 46.9051C29.0512 49.6598 29.4996 51.8204 30.5683 54.0477C32.8751 58.6778 35.705 60.147 38.9917 61.2334C39.0231 61.2429 39.0545 61.2523 39.086 61.2617C38.889 61.2889 38.364 61.1861 37.3253 61.7123C36.8189 61.9895 36.1546 62.4617 35.5934 63.4128C35.0236 64.3301 34.7414 65.8853 35.1041 67.1176C34.5526 64.2848 34.0881 61.895 33.5335 61.1293C32.634 59.6432 31.6285 58.0928 30.4608 56.4068C28.4835 53.5531 26.4904 50.6144 24.6094 47.727C22.1192 43.9014 19.8573 40.137 18.0888 36.6938C16.6711 33.9305 14.9692 30.7681 13.3353 27.2999C13.3116 27.2496 13.288 27.1994 13.2645 27.1492C11.2901 22.9508 9.20572 18.6245 7.36268 14.8853C6.74095 13.623 6.18147 12.4523 5.6481 11.327C6.40846 12.7455 8.83277 13.9004 9.85421 13.8106C10.9539 13.8355 11.2614 13.6137 11.4402 13.5262C11.3482 13.5214 12.5489 12.8788 13.0074 12.0429C13.5048 11.2244 13.4551 10.753 13.4068 10.658C13.3907 10.6258 13.3703 10.6159 13.3495 10.622C13.2122 11.1176 13.1005 11.6861 13.012 12.2587C13.0152 14.8938 13.2384 17.8128 13.4974 20.7133C13.6097 21.1788 13.733 21.6656 13.8629 22.1807C14.5124 24.7475 15.3496 27.9193 16.0378 31.9109C16.3891 33.9519 16.6674 35.9192 16.8939 37.8585C17.4159 42.3541 17.2745 46.3789 17.4545 49.9165C17.659 53.8282 18.2172 56.998 20.4837 60.0846C20.633 60.2892 20.7785 60.4889 20.9185 60.6792C22.9081 63.4947 25.1458 65.4499 28.3739 67.6936C33.0445 70.9133 38.4041 73.7431 41.9513 75.9684C42.2408 76.1491 42.5208 76.3354 42.7937 76.5262C43.7913 77.2217 44.6443 77.9575 45.4921 78.6948C45.4966 78.6993 45.5011 78.7039 45.5056 78.7084C45.5789 78.7722 45.6509 78.8348 45.7249 78.899C47.8792 80.0823 50.0329 81.2694 52.3137 82.6976C53.4621 83.4261 54.6241 84.1844 55.944 85.2607C57.1401 86.5457 59.1869 87.0708 60.4847 92.4106C60.7127 94.2844 60.6317 94.7557 60.6807 95.406C60.707 95.9835 60.7567 96.3843 60.8057 96.5784C60.8485 96.7731 60.9028 96.7198 60.7385 96.3663C60.5925 96.0237 60.0879 95.411 59.5835 95.1112C56.3303 93.4897 55.0634 94.5357 54.1316 94.9514C53.2184 95.4981 52.3968 96.5059 52.1037 97.8092C52.3981 96.3069 52.5969 95.2426 52.7202 94.1563C52.7498 93.4523 52.7436 92.7829 52.6978 92.1738C52.4471 89.0209 51.3281 88.3616 50.5353 88.2227C50.5087 88.2174 50.4812 88.2114 50.4526 88.2046C48.7567 87.0457 43.1747 84.2066 40.5467 85.0511C40.4715 85.0705 40.4025 85.0917 40.3412 85.1135C40.4796 85.1037 40.5567 85.164 41.2085 84.8705C41.5738 84.642 42.0113 84.6263 43.4106 83.0901C44.0071 82.268 45.5098 80.7793 45.5616 76.8743C45.5476 74.9975 44.8005 72.9676 43.9198 71.7131C43.0331 70.4211 42.2125 69.7669 41.5645 69.2963C44.1622 70.9456 46.7435 72.2212 48.968 73.0051C50.8718 73.6778 52.4865 74.5432 54.2174 75.2614C55.3712 75.7387 56.5741 76.143 57.8651 76.316C58.5703 76.3991 59.3019 76.4622 60.0615 76.4983C61.4032 76.5622 62.8808 76.5497 64.4906 76.551C65.9082 76.5526 67.4314 76.5645 69.0601 76.6606C70.586 76.7739 73.889 77.1912 78.6591 78.4492C81.6173 79.3257 85.1871 80.1999 89.6866 83.4443C91.3384 84.6078 93.1117 86.2364 94.5113 88.458C97.5389 92.8634 99.3918 100.354 97.4543 106.572C96.4693 109.134 96.716 114.177 90.103 120.083C89.9686 120.188 89.839 120.286 89.7131 120.377C87.4335 122.064 86.6551 122.381 85.606 123.015C84.6381 123.569 83.8398 124.022 83.1411 124.45C82.1276 125.065 81.3459 125.632 80.4778 126.204C79.3353 126.971 78.1243 127.731 76.3901 128.383C75.0307 128.895 73.397 129.169 72.2974 129.098C71.7906 129.065 71.3783 128.966 71.0319 128.873C70.6292 128.766 70.2691 128.668 69.8279 128.681C69.5112 128.69 69.1965 128.782 68.7931 128.889C68.1431 129.059 67.3157 129.276 66.0455 129.237C61.3368 129.1 56.1116 128.278 51.223 126.952C49.3445 126.447 47.5569 125.889 45.8038 125.283C43.0782 124.331 40.494 123.462 38.2508 122.771C34.1569 121.373 30.0404 120.271 21.8725 116.12C20.6538 115.407 19.1623 114.572 17.1723 112.666C15.1967 110.884 13.0051 107.165 12.4794 104.343C12.1558 102.568 11.4661 99.5936 11.0211 97.2975C10.2778 93.5555 9.38237 89.5362 8.93377 85.1851C8.432 80.0136 8.4264 74.029 11.2911 68.0403C11.8711 66.8633 12.9486 65.4516 14.6182 63.8788C15.8028 62.7683 17.3134 61.5693 19.1544 60.4818C20.2901 59.5496 21.5025 58.7544 22.7828 58.0874C23.4462 57.743 23.9849 57.5274 24.4485 57.358C24.8242 57.2219 25.1598 57.1162 25.4745 57.0252C26.0604 56.8569 26.5144 56.7538 26.9192 56.6679C27.7187 56.5006 28.373 56.3988 28.9793 56.3129C30.1963 56.1437 31.2529 56.0437 32.2852 55.9604C34.362 55.7967 36.2806 55.7175 38.2129 55.6695C38.3732 55.6172 38.5396 55.5641 38.7073 55.5103C38.71 55.509 38.7126 55.5078 38.7152 55.5066C42.4263 54.3045 47.5506 52.724 54.7769 54.079C56.6145 54.43 57.7553 54.9574 58.7819 55.4382C59.7884 55.9124 60.6807 56.342 62.063 56.5835C62.5711 56.6732 63.1418 56.7409 63.7214 56.7926C64.2479 56.8062 65.1249 56.7229 66.225 56.6182C68.5261 56.4043 71.8697 56.1163 75.4122 56.9892C75.6538 57.0487 75.9123 57.1146 76.1852 57.185C76.7365 57.3276 77.3493 57.4945 78.0104 57.6937C79.8044 58.3823 86.1752 59.5264 90.1985 66.0924C92.161 68.897 92.9082 71.9158 93.1386 74.2555C93.8158 83.2365 93.847 92.1058 90.0584 102.239C88.6942 105.503 86.8743 109.194 82.7868 112.513C81.1882 113.786 78.7183 115.28 75.7965 115.87C72.8772 116.47 70.5223 116.122 69.0555 115.889C65.4883 115.242 59.9095 115.211 54.2274 114.523C51.3046 114.13 48.246 113.757 44.3269 112.157C42.4026 111.312 39.9634 110.072 37.7773 107.323C35.5187 104.584 34.7073 100.444 35.0748 97.7193C35.0843 97.6242 35.0947 97.5296 35.106 97.4352C35.0639 97.9745 35.0963 98.0478 35.1011 98.069C35.1102 98.0787 35.1139 97.9918 35.1127 97.8803C35.1099 97.6475 35.0903 97.302 35.0671 96.9277C35.0203 96.177 34.9626 95.3059 34.9321 94.4015C34.8733 92.5806 34.8944 90.6085 35.2502 88.4087C35.6328 86.2359 36.2612 83.6356 38.3167 81.0226C40.358 78.3214 44.0064 76.9622 46.3187 77.0511C47.003 77.1177 47.6646 77.2057 48.3008 77.3139C51.2156 77.8115 53.5097 78.7009 55.0359 79.8108C55.795 80.3661 56.3777 80.9781 56.7009 81.6315C56.8555 81.9535 56.9629 82.3088 56.8677 82.5977C56.8184 82.7365 56.6934 82.8379 56.5387 82.8244C56.3853 82.8157 56.242 82.735 56.1013 82.7357C55.9643 82.7326 55.8009 82.825 55.7358 83.0917C55.6666 83.3561 55.7525 83.6941 55.7952 83.901C55.9191 84.3483 55.921 84.6009 55.8448 84.8721C55.6893 85.3955 55.2855 85.8748 54.7452 86.3745C53.6548 87.3682 51.9526 88.3981 49.8098 89.5207C49.3419 89.7654 48.8555 90.0122 48.3531 90.2616C48.4745 90.4164 48.8579 90.5151 49.4058 90.3812C49.9506 90.2592 50.574 89.8695 50.9453 89.5501C51.6997 88.8565 51.7215 88.9249 51.9114 89.5648C52.0733 90.1931 52.2851 91.2244 52.5609 92.4831C52.6976 93.12 52.8473 93.8119 53.0035 94.6558C53.0819 95.0871 53.1621 95.544 53.24 96.15C53.296 96.8234 53.4626 97.2616 53.3184 99.325C53.3217 99.3081 53.3248 99.2904 53.3278 99.2716C53.4897 98.8154 53.1949 96.7988 52.2903 95.7268C51.4379 94.6539 51.0735 94.6429 51.3563 94.6837C51.9162 94.8488 53.9308 95.1712 56.0092 95.259C60.425 95.5361 65.0613 95.0886 71.9265 95.7489C72.427 95.8002 72.4908 95.7203 71.972 95.7289C71.4691 95.7248 70.5303 95.9783 70.1098 96.1958C69.8021 96.3129 69.6632 96.3786 69.6381 96.3479C69.624 96.3538 69.6106 96.3593 69.5978 96.3645C69.1457 96.5946 69.4719 95.9369 69.5865 94.8534C69.7335 93.769 69.7969 92.3451 69.7498 90.82C69.7293 90.1175 69.688 89.392 69.6314 88.6437Z" fill="#BE592C"/>
<path d="M68.0873 58.3994C67.9038 57.971 67.7295 57.1216 67.6216 56.669C67.6196 56.6606 67.6176 56.6523 67.6156 56.6439C67.5902 56.536 67.5631 56.4353 67.5305 56.3192C67.4933 56.1873 67.4493 56.0336 67.3899 55.8337C67.3355 55.6483 67.2373 55.3415 67.1703 55.1915C67.0794 55.046 67.0053 54.8432 66.9984 54.6302C67.011 53.9635 67.3034 53.7776 67.4367 53.613C67.5942 53.4581 67.7306 53.3608 67.8624 53.2709C68.0383 53.1529 68.204 53.0585 68.3627 52.9714C68.4417 52.9283 68.5191 52.8872 68.5885 52.85C68.6225 52.8317 68.6562 52.8134 68.6794 52.8003C68.6884 52.8011 68.7672 52.7302 68.6103 52.8614C68.5871 52.8845 68.5646 52.9036 68.5121 52.9737C68.4822 53.015 68.4456 53.0708 68.41 53.1561C68.3675 53.2543 68.3121 53.4616 68.3615 53.6863C68.4053 53.9287 68.5911 54.1387 68.6704 54.1963C68.7621 54.2718 68.8457 54.3101 68.8846 54.3268C68.9677 54.3615 69.0099 54.3689 69.0316 54.3742C69.1152 54.3901 69.0801 54.3818 69.0627 54.3808C69.0144 54.3755 68.9325 54.3664 68.8465 54.3495C68.6732 54.3162 68.4588 54.248 68.2573 54.1153C67.831 53.8448 67.6296 53.3619 67.5811 53.0428C67.4846 52.2834 67.6124 51.8435 67.7225 51.3252C67.7842 51.0739 67.8557 50.8291 67.9496 50.5735C67.9974 50.4452 68.0491 50.3159 68.1222 50.169C68.1602 50.0938 68.2003 50.0171 68.2699 49.9145C68.3046 49.8649 68.3461 49.8058 68.425 49.7253C68.5108 49.6581 68.5973 49.5001 69.0229 49.4312C69.2714 49.4012 69.5279 49.5018 69.663 49.6079C69.7947 49.7066 69.8616 49.8033 69.9007 49.8623C69.9855 49.9972 70.0088 50.0758 70.0322 50.143C70.0754 50.2797 70.0893 50.3709 70.1027 50.4603C70.1267 50.6349 70.1329 50.782 70.1354 50.9267C70.1391 51.2137 70.1224 51.484 70.0944 51.753C70.034 52.2918 69.9422 52.8168 69.727 53.3828C69.6855 53.489 69.6403 53.5909 69.5881 53.6946C69.57 53.7334 69.5498 53.7748 69.5294 53.8145C69.2475 54.3481 68.8226 54.8852 68.0697 55.1744C68.0696 55.1745 68.0696 55.1745 68.069 55.1747C68.0686 55.1748 68.0685 55.1748 68.0663 55.1756C68.0635 55.1765 68.0687 55.175 68.0488 55.1811C68.0451 55.1822 68.0411 55.1835 68.0297 55.1866C68.0235 55.1883 68.0163 55.1903 67.9989 55.1944C67.9691 55.1972 67.9937 55.2096 67.8038 55.2146C67.743 55.2053 67.6679 55.2347 67.4212 55.105C67.3032 55.0398 67.1142 54.8629 67.058 54.611C67 54.3608 67.0745 54.165 67.1269 54.0654C67.3578 53.7191 67.3856 53.7979 67.427 53.7521C67.4915 53.7159 67.4991 53.7155 67.5131 53.7088C67.5351 53.6995 67.5396 53.6981 67.5451 53.696C67.5615 53.6899 67.5605 53.6904 67.5633 53.6894C67.5752 53.6853 67.5686 53.6875 67.5702 53.687C67.5701 53.687 67.5699 53.6871 67.57 53.6871C67.57 53.6871 67.57 53.6871 67.5701 53.6871C67.5702 53.687 67.5704 53.687 67.5708 53.6868C67.5717 53.6865 67.5724 53.6864 67.5732 53.6861C67.5748 53.6856 67.5776 53.6846 67.5793 53.6841C67.5834 53.6827 67.5883 53.6811 67.5928 53.6795C67.6024 53.6762 67.6123 53.6728 67.6217 53.6694C67.6413 53.6624 67.6609 53.6553 67.6802 53.6481C67.7186 53.6336 67.7556 53.619 67.7897 53.6049C67.8577 53.5769 67.9151 53.55 67.9502 53.5332C67.9764 53.5214 67.9922 53.5102 67.9756 53.5305C67.9688 53.5531 67.8702 53.6066 67.8465 53.8826C67.8486 54.1922 68.002 54.297 68.031 54.3244C68.074 54.3557 68.0786 54.3487 68.0733 54.3435C68.0599 54.3293 68.0073 54.3051 67.9535 54.2877C67.8424 54.2515 67.7141 54.2297 67.5961 54.2171C67.3436 54.2057 67.0723 54.2295 66.8009 54.2793C65.1426 54.5965 63.5245 55.4235 61.9806 56.3287C61.4103 56.6646 60.8464 57.0182 60.2764 57.3747C59.9443 57.5819 59.6054 57.7932 59.2582 57.9945C59.1495 58.0574 59.0558 58.1128 58.9754 58.1616C58.8618 58.2306 58.802 58.2675 58.7091 58.3309C58.689 58.3459 58.6457 58.3845 58.6788 58.3584C58.6837 58.354 58.6903 58.3478 58.6992 58.3381C58.7056 58.3172 58.7196 58.3655 58.8043 58.1428C58.8454 58.0418 58.8221 57.7641 58.6646 57.6271C58.527 57.4938 58.3792 57.4864 58.3843 57.4848C58.3361 57.477 58.3074 57.4777 58.2866 57.4781C58.2084 57.4836 58.2318 57.4837 58.2341 57.4803C58.2711 57.4654 58.3496 57.4324 58.423 57.399C58.5628 57.3351 58.7106 57.263 58.8493 57.194C59.2406 56.999 59.588 56.8171 59.884 56.6751C60.5867 56.3372 61.4078 55.9853 62.0153 55.7221C62.1153 55.6787 62.2085 55.6383 62.295 55.6005C62.7659 55.3657 63.2352 55.1288 63.704 54.8898C63.7385 54.8804 63.7733 54.871 63.8086 54.8616C64.2505 54.7432 64.7436 54.5039 65.5238 54.1155C65.8567 53.9493 66.2547 53.7503 66.7057 53.5234C67.0073 53.3709 67.1573 53.3273 67.2874 53.2841C67.299 53.2807 67.3097 53.2777 67.3195 53.2749C67.3394 53.2688 67.3588 53.2622 67.3778 53.2546C67.4786 53.2143 67.5572 53.1247 67.6347 53.0115C67.7362 52.8626 67.8363 52.6796 68.0185 52.4425C68.5848 51.6401 68.5743 51.0977 68.6081 50.7576C68.6148 50.6532 68.6203 50.5574 68.6329 50.4612C68.6646 50.2261 68.7378 49.9231 68.8368 49.6266L69.3707 50.32C69.3088 50.3113 69.2402 50.3073 69.1738 50.3067C68.9649 50.295 68.5155 50.4846 68.2014 50.7032C68.0815 50.7834 67.913 50.879 67.7157 51.0054C67.5119 51.1358 67.279 51.2985 67.0464 51.4977C66.4602 52.0053 66.1743 52.3094 65.9408 52.5479C65.8748 52.6165 65.8132 52.6813 65.7529 52.7459C65.5614 52.951 65.3244 53.2067 65.0916 53.4725C64.9335 53.6526 64.7785 53.8356 64.637 54.0098C64.6311 54.0169 64.6118 54.0367 64.6055 54.0435C64.4781 54.1813 64.3576 54.3076 64.2536 54.4178C63.5783 55.0182 62.9751 55.547 62.4051 56.1744C62.1126 56.4917 61.7937 56.7716 61.5054 56.9436C61.218 57.1144 60.9851 57.1614 60.8528 57.063C60.7221 56.9632 60.7014 56.7245 60.8027 56.396C60.9048 56.0667 61.1231 55.6756 61.4163 55.3174C61.9988 54.5922 62.696 53.9136 63.3183 53.3026C63.4093 53.2113 63.4985 53.1203 63.586 53.0284L63.5579 53.0584C64.2023 52.2976 64.8968 51.575 65.6695 50.9192C66.287 50.3998 66.9422 49.9118 67.7142 49.5257C67.7937 49.4865 67.8757 49.4481 67.9583 49.412C68.3734 49.2001 68.8444 49.0137 69.3828 48.9975C69.922 49.0209 70.2695 49.4348 70.1184 49.953C70.0827 50.1363 70.0494 50.329 70.0175 50.4939C69.9465 50.866 69.8579 51.1444 69.775 51.3806C69.7179 51.5438 69.6638 51.6886 69.6175 51.8392C69.5926 51.9204 69.5586 52.0315 69.5123 52.1662C69.3294 52.687 68.9269 53.737 67.9281 54.2934C67.9224 54.2964 67.9167 54.2994 67.9109 54.3025C67.555 54.4883 67.1689 54.6437 66.7941 54.798C66.2595 55.016 65.7594 55.213 65.5246 55.3435C65.1127 55.5725 64.611 55.794 64.175 55.9844C63.7562 56.1674 63.3892 56.3262 63.1961 56.4485C62.9643 56.5952 62.7516 56.6814 62.43 56.8112C62.2092 56.9 61.9355 57.0102 61.5721 57.172C61.1519 57.3589 60.8518 57.4714 60.5851 57.5716C60.2246 57.7055 59.9404 57.8114 59.5564 58.021C59.3402 58.1382 59.1262 58.2491 58.8917 58.3536C58.7754 58.4044 58.6749 58.4496 58.5202 58.4965C58.4934 58.4993 58.4416 58.5369 58.252 58.5279C58.221 58.518 58.2143 58.5474 58.0307 58.4566C57.8444 58.3842 57.7212 58.0043 57.7886 57.8719C57.9011 57.5868 57.9033 57.672 57.9203 57.6336C57.9509 57.6006 57.9742 57.5805 57.9969 57.5616C58.1005 57.4801 58.1079 57.4809 58.1712 57.4398C58.273 57.3772 58.3328 57.3422 58.4444 57.2755C58.5242 57.2281 58.6144 57.1745 58.7207 57.1126C58.7288 57.1079 58.7369 57.1032 58.745 57.0984C58.9766 56.9636 59.2211 56.8131 59.4522 56.6876C59.6478 56.5815 59.8237 56.509 59.9778 56.4457C60.0258 56.426 60.0723 56.4068 60.1172 56.3873C60.2685 56.2918 60.4205 56.1956 60.574 56.0984C60.5958 56.0787 60.6186 56.0577 60.6426 56.0358C60.7637 55.9254 60.9134 55.7895 61.113 55.6458C61.4302 55.4176 61.7339 55.256 62.0571 55.0902C62.3092 54.9611 62.5723 54.8296 62.8673 54.6639C63.0685 54.5508 63.2955 54.4172 63.5242 54.2887C63.8633 54.0976 64.2078 53.9195 64.4607 53.8247C64.5552 53.7891 64.6432 53.7742 64.7304 53.7603C64.7307 53.7603 64.7311 53.7602 64.7315 53.7602C64.7375 53.7593 64.7434 53.7583 64.7493 53.7574C65.3255 53.5081 65.9253 53.2898 66.5532 53.136C66.5821 53.129 66.6109 53.1222 66.6396 53.1157C66.6978 53.0988 66.7576 53.0827 66.8175 53.0677C67.1091 52.9936 67.4057 52.9516 67.61 52.9209C67.7196 52.9046 67.911 52.8925 68.1719 52.9262C68.303 52.9446 68.4507 52.9712 68.6341 53.0433C68.7265 53.0815 68.8289 53.1272 68.9572 53.2288C69.0681 53.3242 69.3022 53.5259 69.2984 53.9476C69.2975 53.9743 69.2952 54.0006 69.2919 54.0261C69.1904 54.503 68.9975 54.5744 68.8951 54.6832C68.7801 54.7773 68.6842 54.8363 68.5928 54.8903C68.4101 54.9956 68.255 55.068 68.0976 55.1357C68.0927 55.1378 68.0883 55.1396 68.0823 55.142C68.0794 55.1431 68.078 55.1438 68.0744 55.1452C68.0725 55.1459 68.0709 55.1465 68.0695 55.147C68.0688 55.1473 68.0681 55.1476 68.0675 55.1478C68.0676 55.1478 68.066 55.1483 68.0652 55.1486C68.065 55.1487 68.0637 55.1491 68.066 55.1484C68.0665 55.1482 68.0669 55.1481 68.069 55.1473C68.0704 55.1469 68.0711 55.1466 68.0775 55.1444C68.0833 55.1421 68.0784 55.1447 68.1151 55.1297C68.1301 55.1224 68.1317 55.1263 68.211 55.0812C68.234 55.0666 68.2624 55.0522 68.3278 54.9952C68.3608 54.9642 68.4062 54.9252 68.4683 54.8266C68.5237 54.7347 68.6277 54.5283 68.5553 54.2378C68.4798 53.9451 68.2512 53.7895 68.1396 53.7415C68.0177 53.6874 67.9505 53.6823 67.901 53.6757C67.8057 53.6671 67.7729 53.6735 67.7439 53.6755C67.5897 53.6984 67.6341 53.6974 67.6122 53.701C67.5627 53.7161 67.5896 53.708 67.5826 53.7102C67.5815 53.7105 67.5817 53.7104 67.5817 53.7104C67.5634 53.7095 67.692 53.6679 67.7671 53.6333C67.8512 53.5955 67.9406 53.5417 68.0095 53.4544C68.0441 53.4106 68.0751 53.3571 68.1045 53.2979C68.1301 53.2461 68.155 53.1893 68.1814 53.1294C68.2015 53.0833 68.2553 52.9958 68.314 52.8666C68.3255 52.8415 68.3375 52.8137 68.3497 52.7841C68.3952 52.6737 68.4421 52.5365 68.4821 52.3851C68.5534 51.978 68.5849 51.5381 68.5739 51.1262C68.5556 51.0409 68.5296 50.9693 68.4965 50.9176C68.4727 50.8797 68.4446 50.8505 68.4154 50.8229C68.3759 50.7868 68.3337 50.7486 68.2989 50.7242C68.2737 50.7067 68.2539 50.7034 68.3025 50.7896C68.3281 50.8307 68.3584 50.8745 68.4364 50.9543C68.5162 51.0254 68.6628 51.1851 69.0075 51.2364C69.074 51.2446 69.1426 51.2457 69.2091 51.2397C69.3584 51.2287 69.5035 51.17 69.5719 51.1339C69.7561 51.0319 69.795 50.9759 69.8147 50.9547C69.8285 50.925 69.7138 51.1677 69.6575 51.35C69.5849 51.5681 69.5268 51.7982 69.4989 51.9774C69.4671 52.1727 69.405 52.4782 69.3956 52.6581C69.3938 52.6838 69.393 52.7037 69.3911 52.712C69.3908 52.7562 69.3558 52.66 69.2664 52.6042C69.2178 52.5714 69.1777 52.5614 69.1857 52.5595C69.1903 52.5585 69.201 52.5582 69.244 52.5599C69.2715 52.5623 69.2846 52.5581 69.4006 52.5772C69.4351 52.5843 69.4706 52.589 69.5598 52.6203C69.6003 52.6359 69.6573 52.6554 69.7542 52.7172C69.8012 52.7481 69.8516 52.7856 69.9097 52.844C69.9796 52.9143 70.0535 53.0134 70.105 53.1351C70.2152 53.3965 70.1841 53.6374 70.1323 53.7936C70.085 53.9295 70.0477 53.9818 70.0093 54.0401C69.9375 54.1399 69.911 54.1608 69.8745 54.1978C69.8471 54.224 69.8247 54.2431 69.8049 54.2592C69.6096 54.4068 69.5955 54.4027 69.5254 54.4487C69.4668 54.4845 69.417 54.5141 69.3682 54.5421C69.2719 54.5975 69.1856 54.6435 69.1062 54.6779C69.0741 54.6918 69.0248 54.6918 68.9646 54.6922C68.922 54.6925 68.8735 54.6932 68.8235 54.6987C68.7436 54.7519 68.6734 54.8079 68.646 54.8357C68.599 54.856 68.7161 54.8753 68.7077 54.5006C68.7081 54.4767 68.707 54.4523 68.7044 54.428C68.7043 54.4276 68.7043 54.4272 68.7043 54.4268C68.6971 54.3618 68.6804 54.3021 68.6595 54.2509C68.8933 54.4874 69.0851 54.7586 69.1593 55.1475C69.1796 55.2577 69.1727 55.336 69.165 55.4017C69.1575 55.4669 69.1516 55.5286 69.1691 55.6033C69.1893 55.6891 69.2353 55.7861 69.2837 55.8892C69.3522 56.0361 69.4262 56.1982 69.4461 56.3751C69.4475 56.3872 69.4489 56.4003 69.4505 56.4138C69.4651 56.5415 69.4856 56.7308 69.477 56.9241C69.5975 57.4601 69.7059 58.0013 69.8167 58.5157C69.8474 58.6562 69.8786 58.7955 69.9086 58.9094C69.9158 58.9369 69.923 58.9622 69.9263 58.9745C69.9271 58.9788 69.9292 58.9836 69.919 58.9643C69.911 58.9506 69.9149 58.953 69.8799 58.9016C69.8597 58.8743 69.8319 58.8354 69.7661 58.7803C69.6889 58.7381 69.6353 58.6167 69.2521 58.637C68.9028 58.6905 68.7737 58.9556 68.7601 58.9795C68.7376 59.0223 68.7267 59.0533 68.7189 59.0771C68.7043 59.1235 68.7018 59.1481 68.701 59.1543C68.6995 59.1686 68.7007 59.1688 68.7017 59.1619C68.7039 59.1487 68.706 59.1263 68.7074 59.0926C68.7305 58.4796 68.7549 57.8686 68.7793 57.2554C68.7971 56.8158 68.8729 56.3922 68.9943 56.0826C69.0095 56.0415 69.0252 56.0058 69.0414 55.9715C69.0455 55.9617 69.0496 55.9553 69.0537 55.9466C69.0557 55.9413 69.0578 55.937 69.0599 55.9336C69.0609 55.9313 69.0619 55.9319 69.063 55.9276C69.0635 55.926 69.064 55.9248 69.0645 55.924C69.0648 55.9237 69.0651 55.9234 69.0653 55.9232C69.0655 55.9231 69.0656 55.923 69.0657 55.923C69.0658 55.923 69.0658 55.923 69.0659 55.923C69.0659 55.923 69.0659 55.923 69.066 55.923C69.066 55.923 69.066 55.923 69.066 55.923C69.066 55.923 69.066 55.923 69.066 55.923H69.066C69.066 55.923 69.066 55.923 69.066 55.923C68.7218 55.923 70.0297 55.923 69.6855 55.923H69.6855C69.6855 55.923 69.6855 55.923 69.6855 55.923C69.6855 55.923 69.6855 55.923 69.6855 55.923C69.6854 55.923 69.6854 55.923 69.6854 55.923C69.677 55.9371 69.6686 55.9539 69.66 55.9689C69.6258 56.0282 69.5898 56.0832 69.5526 56.121C69.4781 56.2049 69.3987 56.2479 69.3179 56.2492C69.2371 56.2479 69.1577 56.2049 69.0833 56.121C69.0461 56.0832 69.0101 56.0281 68.9758 55.9689C68.9673 55.9539 68.9588 55.937 68.9505 55.923C68.9504 55.923 68.9504 55.923 68.9504 55.923C68.9504 55.923 68.9504 55.923 68.9504 55.923C68.9504 55.923 68.9504 55.923 68.9504 55.923C68.4777 55.923 70.2738 55.923 69.8011 55.923C69.8011 55.923 69.8011 55.923 69.8011 55.923C69.8011 55.923 69.8011 55.923 69.8011 55.923C69.8011 55.923 69.8011 55.923 69.8011 55.923C69.8011 55.923 69.8011 55.923 69.8012 55.923C69.8012 55.923 69.8012 55.923 69.8012 55.923C69.8013 55.923 69.8013 55.923 69.8014 55.923C69.8015 55.923 69.8017 55.9231 69.8018 55.9232C69.8021 55.9234 69.8023 55.9237 69.8026 55.9241C69.8031 55.9248 69.8036 55.926 69.8041 55.9276C69.8052 55.9319 69.8062 55.9314 69.8072 55.9336C69.8093 55.937 69.8114 55.9413 69.8134 55.9466C69.8175 55.9553 69.8216 55.9617 69.8257 55.9715C69.8419 56.0058 69.8576 56.0415 69.8728 56.0826C69.9942 56.3922 70.07 56.8158 70.0878 57.2554C70.1122 57.8686 70.1367 58.4796 70.1597 59.0926C70.1605 59.1746 70.1658 59.2216 70.1503 59.3636C70.1472 59.3826 70.1402 59.4674 70.0935 59.5871C70.0793 59.6215 70.0693 59.6473 70.0343 59.7072C69.9754 59.8024 69.8516 59.9779 69.5763 60.065C69.2978 60.1578 69.0084 60.0351 68.9551 59.9986C68.8588 59.9447 68.8024 59.8918 68.7606 59.8492C68.6003 59.6623 68.6315 59.6683 68.5986 59.617C68.5786 59.5773 68.5639 59.5425 68.5561 59.5243C68.5276 59.4616 68.5076 59.4105 68.4905 59.3672C68.3696 59.0492 68.2698 58.8163 68.1605 58.5676C68.1364 58.5131 68.1119 58.457 68.0873 58.3994Z" fill="#BE592C"/>
<path d="M71.8491 53.2646C71.6592 52.9103 71.3739 52.3226 70.3341 51.6387C69.2897 50.8771 67.2148 50.7551 66.2725 51.1501C65.2734 51.4912 64.8739 51.8546 64.5741 52.0924C64.293 52.3327 64.1371 52.5129 64.0343 52.6372C63.6344 53.1485 63.6687 53.2814 63.6421 53.404C63.6415 53.4081 63.641 53.4121 63.6404 53.4161C63.6378 53.4639 63.6263 53.4975 63.6151 53.5323C63.6151 53.5323 63.6151 53.5324 63.6151 53.5324C63.5917 53.6086 63.5737 53.6941 63.7944 53.806C63.7844 53.8061 63.7805 53.8028 63.7824 53.7984C63.812 53.7281 64.2014 53.62 64.6313 53.5845C64.6305 53.5814 64.6296 53.5781 64.6287 53.5748C64.6105 53.513 64.5895 53.433 64.7349 53.4504C64.9206 53.4706 65.0884 53.5004 65.232 53.5291C65.5807 53.4952 65.8984 53.4515 66.0661 53.3466C66.1181 53.3151 66.1569 53.273 66.1755 53.2286C66.1929 53.1868 66.2006 53.1368 66.1966 53.0866C66.1292 53.0295 66.0469 52.9671 65.9708 52.9089C65.8638 52.8271 65.7691 52.7538 65.7436 52.7171C65.6824 52.6284 65.8425 52.6187 65.9593 52.6167C65.9785 52.6161 65.9966 52.6156 66.0125 52.6147C65.9793 52.5579 65.9432 52.4983 65.9057 52.4389C65.9363 52.4492 65.9681 52.4599 66.0008 52.471C66.4084 52.6092 66.4193 52.5698 66.438 52.5059C66.4465 52.4774 66.4553 52.4473 66.4991 52.4242C66.5272 52.4094 66.6886 52.4649 66.8202 52.5103C66.8589 52.5236 66.8951 52.5361 66.9246 52.5456C67.0256 52.5783 66.9249 52.5234 66.806 52.4583C66.6518 52.374 66.4668 52.2723 66.6509 52.3249C67.238 52.4918 66.8757 52.2955 66.6018 52.1465C66.5215 52.1028 66.4489 52.0633 66.41 52.0382C66.2836 51.9571 66.4315 51.9851 66.6266 52.042C66.7812 52.0872 66.6522 51.9866 66.4801 51.8771C66.415 51.8358 66.4197 51.82 66.4256 51.8021C66.4314 51.784 66.4387 51.7632 66.3698 51.7071C66.1959 51.5655 66.1132 51.4934 66.047 51.4357C66.0281 51.4192 66.011 51.4041 65.993 51.3885C65.9364 51.3391 65.8926 51.2919 65.849 51.243C65.7967 51.1846 65.7438 51.125 65.6656 51.0627C65.7862 51.0427 65.9279 51.0353 66.0697 51.0268C66.1432 51.0228 66.4941 51.1426 67.0603 51.3676C67.627 51.5927 68.3587 51.9028 69.1113 52.2367C69.8639 52.5707 70.5847 52.905 71.1325 53.173C71.6797 53.4409 72.0055 53.6188 72.0526 53.6744C72.1462 53.7857 72.2405 53.896 72.3096 53.9974C72.3942 54.1201 72.4437 54.2246 72.4121 54.2967C72.3902 54.3467 72.3517 54.3859 72.2969 54.4231C72.2913 54.4268 72.2854 54.4303 72.2796 54.4339C72.4471 54.557 72.5984 54.6715 72.6463 54.7262C72.6858 54.7714 72.5785 54.7468 72.4871 54.725C72.4241 54.7101 72.3684 54.6969 72.3726 54.7098C72.3748 54.7167 72.3834 54.7285 72.3936 54.7427C72.4354 54.8006 72.507 54.8973 72.3025 54.8718C72.212 54.8602 72.0416 54.8184 71.879 54.7783C71.6468 54.7201 71.4288 54.6698 71.4837 54.7134C71.5798 54.7908 71.4726 54.7857 71.3779 54.7808C71.287 54.7772 71.2076 54.7743 71.3276 54.8427C71.471 54.9244 71.4032 54.913 71.3028 54.8961C71.2333 54.8843 71.1483 54.87 71.1061 54.8831C71.0575 54.898 70.9429 54.8741 70.8455 54.8537C70.7083 54.8252 70.6055 54.8028 70.7684 54.906C70.9496 55.0199 71.0598 55.1044 70.9878 55.1038C70.9549 55.1034 70.9562 55.1194 70.9573 55.1368C70.9589 55.1595 70.9605 55.1831 70.8832 55.1715C70.8195 55.1619 70.6671 55.1121 70.5322 55.0681C70.4901 55.0544 70.4499 55.0413 70.4144 55.0301C70.4117 55.0419 70.4092 55.0557 70.4087 55.0692C70.4316 55.0811 70.4571 55.0941 70.4833 55.1075C70.6151 55.1748 70.7768 55.2572 70.8536 55.3076C70.9749 55.3875 70.8841 55.3732 70.7864 55.3611C70.7106 55.3512 70.6315 55.3406 70.6482 55.3724C70.6596 55.3943 70.7135 55.4349 70.7664 55.4765C70.8449 55.5383 70.9224 55.5985 70.86 55.5922C70.8366 55.5898 70.7416 55.5569 70.647 55.5242C70.6465 55.524 70.6459 55.5238 70.6453 55.5236C70.6389 55.5214 70.6326 55.5192 70.6263 55.517C70.6803 55.5867 70.7411 55.6609 70.8071 55.7341C70.8295 55.7475 70.8515 55.7608 70.8733 55.7739C70.9794 55.8379 71.0826 55.8995 71.2346 55.974C71.3993 56.0548 71.4861 56.1238 71.5771 56.1979C71.6368 56.2462 71.699 56.2949 71.786 56.3503C71.8368 56.3829 71.737 56.3538 71.6341 56.3238C71.5381 56.2958 71.4396 56.267 71.4589 56.2866C71.4686 56.2964 71.5061 56.318 71.5463 56.3409C71.5816 56.361 71.6188 56.3831 71.6407 56.3987C71.661 56.4134 71.6038 56.4046 71.5311 56.3933C71.4861 56.3863 71.4354 56.3784 71.3927 56.3742C71.4396 56.4303 71.4855 56.482 71.5259 56.5355C71.6075 56.5758 71.7144 56.6253 71.8529 56.686C71.9522 56.7296 72.0714 56.7805 72.1933 56.8326C72.3591 56.9035 72.5304 56.9768 72.6662 57.0374C72.7722 57.0848 72.8132 57.1069 72.7671 57.0923C72.7457 57.0854 72.7058 57.0709 72.6698 57.0578C72.6286 57.0428 72.5919 57.0295 72.5923 57.0313C72.5927 57.0327 72.6212 57.0453 72.6555 57.0606C72.7105 57.0851 72.7813 57.1167 72.7822 57.1218C72.7856 57.1411 72.7556 57.1491 72.7261 57.1568C72.6928 57.1668 72.6605 57.1763 72.6758 57.2003C72.6931 57.2269 72.5749 57.2114 72.4578 57.1942C72.3756 57.1833 72.2934 57.1735 72.2562 57.178C72.22 57.182 72.2707 57.2265 72.3208 57.2686C72.3811 57.3185 72.437 57.3722 72.3349 57.3543C72.3141 57.3506 72.1964 57.3079 72.0493 57.2541C71.9451 57.2157 71.8256 57.1729 71.7151 57.1341C71.7029 57.1631 71.6859 57.19 71.6614 57.2225C71.6764 57.2305 71.6917 57.2387 71.7073 57.247C71.7077 57.2472 71.708 57.2474 71.7084 57.2476C72.0613 57.4339 72.5382 57.7031 72.1986 57.6633C72.1124 57.6528 71.967 57.6036 71.8364 57.5584C71.7078 57.515 71.5925 57.4764 71.5597 57.4857C71.531 57.494 71.5599 57.5345 71.6029 57.5876C71.6155 57.6042 71.6293 57.622 71.6432 57.6404C71.7284 57.7509 71.8156 57.8882 71.6495 57.9133C71.6383 57.9147 71.626 57.9162 71.6136 57.918C71.4929 57.9387 71.3107 57.9768 70.9654 57.9825C70.8601 58.0939 70.7357 58.241 70.4447 58.4963C70.2676 58.6442 70.1131 58.7873 69.6648 59.035C69.2961 59.2229 68.5212 59.5957 67.37 59.4392C66.8293 59.3624 66.3122 59.1503 65.9228 58.8955C65.5515 58.6532 65.3076 58.4069 65.1199 58.1828C64.9589 57.9874 64.8458 57.8095 64.7591 57.653C64.6833 57.5138 64.6316 57.3974 64.5888 57.2897C64.439 56.8924 64.4286 56.7032 64.416 56.554C64.4022 56.0925 64.5004 55.9973 64.5761 55.87C64.6576 55.7579 64.7469 55.6885 64.8363 55.6302C64.9244 55.5738 65.3035 55.5331 65.9104 55.5075C66.5181 55.4819 67.2992 55.4704 68.1071 55.4702C68.9149 55.4699 69.6954 55.4839 70.3032 55.5028C70.9101 55.5217 71.2893 55.5403 71.3782 55.5433C71.5192 55.5383 71.6727 55.55 71.7774 55.279C71.7925 55.2632 71.8064 55.2439 71.8191 55.224C71.8973 55.0526 72.1625 54.9168 72.106 54.103C72.0811 53.9052 72.032 53.6497 71.8491 53.2646Z" fill="#BE592C"/>
<path d="M71.0333 56.4398C71.2296 56.7743 71.1062 56.6665 71.0384 56.6073C71.0373 56.6064 71.0361 56.6054 71.035 56.6045C71.0189 56.5905 71.0116 56.5889 71.0032 56.5875C70.9832 56.5842 70.9561 56.5796 70.7845 56.3973C70.7795 56.4116 70.7721 56.4225 70.7621 56.4292C70.6531 56.5018 70.3656 56.3066 70.0428 56.0585C70.0425 56.0611 70.0423 56.0637 70.042 56.0664C70.0368 56.1178 70.0304 56.1815 69.9307 56.0782C69.804 55.9468 69.6932 55.8204 69.5983 55.7107C69.3397 55.5103 69.0994 55.3374 68.9493 55.2998C68.9023 55.288 68.8643 55.2897 68.8372 55.3078C68.8122 55.3245 68.794 55.3514 68.7819 55.3872C68.8141 55.467 68.8558 55.5595 68.8944 55.6453C68.9486 55.7657 68.9968 55.8727 69.0045 55.913C69.023 56.0099 68.9072 55.9146 68.8211 55.8438C68.807 55.8322 68.7937 55.8212 68.782 55.8119C68.7899 55.8701 68.7999 55.9314 68.8107 55.9938C68.7914 55.968 68.7713 55.941 68.7508 55.9134C68.4945 55.5685 68.4752 55.588 68.4443 55.6181C68.4309 55.6313 68.4152 55.6463 68.377 55.6344C68.3524 55.6268 68.2511 55.4898 68.1684 55.3781C68.1441 55.3452 68.1213 55.3145 68.1026 55.2899C68.0386 55.2056 68.0962 55.3044 68.1643 55.4212C68.2526 55.5726 68.3587 55.7545 68.2395 55.6058C67.8596 55.1318 68.0678 55.4864 68.2253 55.7546C68.2715 55.8333 68.3132 55.9044 68.3346 55.9451C68.4037 56.0771 68.3037 55.9673 68.1779 55.8089C68.0781 55.6834 68.1438 55.83 68.2387 56.009C68.2746 56.0767 68.2671 56.084 68.2579 56.0923C68.2484 56.1009 68.2372 56.1104 68.2716 56.1903C68.3586 56.392 68.3992 56.4908 68.4317 56.5699C68.4409 56.5925 68.4493 56.6131 68.4581 56.6344C68.4861 56.702 68.5043 56.7609 68.5226 56.8204C68.5444 56.8915 68.5667 56.9638 68.6066 57.0534C68.5144 56.9918 68.4087 56.9101 68.3032 56.8287C68.2486 56.7863 68.0263 56.4906 67.6757 55.9926C67.3248 55.4942 66.8769 54.838 66.4202 54.1529C65.9634 53.4678 65.53 52.8019 65.2048 52.2863C64.88 51.7712 64.6923 51.4517 64.6741 51.385C64.6383 51.2518 64.6024 51.1185 64.5813 51.0074C64.5557 50.8721 64.5519 50.7696 64.5966 50.7398C64.6278 50.719 64.67 50.7145 64.7208 50.723C64.726 50.7239 64.7315 50.7251 64.7369 50.7262C64.6507 50.54 64.5746 50.3691 64.5566 50.3021C64.5418 50.2468 64.6129 50.3294 64.6738 50.4001C64.7156 50.4487 64.7527 50.4917 64.7536 50.4803C64.7541 50.4742 64.7514 50.461 64.7483 50.445C64.7354 50.3798 64.7137 50.2692 64.8562 50.4119C64.9195 50.4753 65.0324 50.6079 65.1402 50.7346C65.2943 50.9158 65.438 51.0847 65.4114 51.0211C65.3646 50.9095 65.4422 50.9786 65.511 51.0398C65.5766 51.0982 65.6339 51.1491 65.567 51.0289C65.487 50.8852 65.5334 50.9345 65.6022 51.0076C65.6499 51.0583 65.7083 51.1201 65.7431 51.1374C65.7832 51.1575 65.8601 51.2443 65.9254 51.3181C66.0174 51.422 66.0866 51.5001 65.9987 51.3301C65.9011 51.1413 65.847 51.0158 65.9002 51.0606C65.9244 51.081 65.9287 51.0692 65.9331 51.057C65.939 51.0407 65.9453 51.0238 65.9984 51.0794C66.0423 51.1253 66.1385 51.2533 66.2236 51.3665C66.2502 51.4018 66.2756 51.4355 66.2981 51.4651C66.3042 51.4585 66.3099 51.4512 66.3145 51.4424C66.3014 51.4202 66.2869 51.3956 66.2719 51.3703C66.1965 51.2432 66.1041 51.0873 66.064 51.0056C66.0005 50.8765 66.0638 50.9417 66.1309 51.0109C66.1832 51.0648 66.2377 51.1211 66.2358 51.0892C66.2345 51.0674 66.2088 51.006 66.1832 50.9453C66.1453 50.855 66.108 50.7661 66.1519 50.8091C66.1684 50.8253 66.2274 50.9065 66.2862 50.9874C66.2866 50.9878 66.2869 50.9883 66.2873 50.9888C66.2913 50.9943 66.2952 50.9997 66.2991 51.0051C66.2824 50.9244 66.2614 50.8371 66.2378 50.746C66.2257 50.723 66.2139 50.7004 66.2022 50.678C66.1452 50.5689 66.0898 50.4629 66.0031 50.3178C65.9091 50.1605 65.8689 50.0595 65.8265 49.9529C65.7987 49.8831 65.7701 49.811 65.7247 49.7192C65.6982 49.6656 65.7617 49.7476 65.8271 49.8322C65.8881 49.9111 65.9508 49.9921 65.9433 49.9667C65.9396 49.954 65.9194 49.916 65.8977 49.8753C65.8787 49.8395 65.8585 49.8016 65.8477 49.7774C65.8376 49.7549 65.8765 49.7967 65.9261 49.8498C65.9567 49.8826 65.9913 49.9197 66.0213 49.9492C66.0046 49.8828 65.9894 49.8187 65.9766 49.7582C65.9303 49.6801 65.8684 49.5798 65.7873 49.4523C65.7291 49.3608 65.6589 49.2518 65.5872 49.1405C65.4895 48.9889 65.3886 48.8323 65.3095 48.7064C65.2477 48.6081 65.2251 48.5676 65.2539 48.6063C65.2673 48.6244 65.2915 48.6592 65.3135 48.6906C65.3386 48.7266 65.3609 48.7586 65.3611 48.7571C65.3612 48.756 65.3446 48.7297 65.3245 48.6979C65.2924 48.6471 65.251 48.5815 65.2519 48.5776C65.2553 48.563 65.2793 48.5768 65.303 48.5905C65.3293 48.6057 65.3549 48.6204 65.3508 48.5953C65.3462 48.5672 65.4241 48.6539 65.5019 48.7403C65.5561 48.8006 65.6102 48.8605 65.6367 48.8822C65.6627 48.9034 65.6359 48.8447 65.6096 48.7873C65.578 48.7185 65.5475 48.6521 65.6118 48.7309C65.6248 48.7469 65.6962 48.8496 65.7856 48.9781C65.8489 49.0692 65.9214 49.1733 65.9886 49.269C65.9989 49.2621 66.0121 49.2595 66.0277 49.2605C66.0186 49.2461 66.0094 49.2315 66 49.2166C65.9998 49.2163 65.9996 49.2159 65.9993 49.2156C65.787 48.8787 65.4966 48.418 65.6931 48.6774C65.743 48.7433 65.8302 48.8685 65.9087 48.9811C65.9858 49.0917 66.0548 49.1907 66.0719 49.2098C66.0912 49.2314 66.0494 49.1598 66.0039 49.082C65.9399 48.9727 65.8685 48.8506 65.9484 48.9554C65.9539 48.9625 65.9598 48.9704 65.9658 48.9782C66.0228 49.0527 66.1069 49.1628 66.2688 49.3895C66.332 49.4367 66.4023 49.4944 66.477 49.5588C66.6016 49.6661 66.7384 49.7919 66.8752 49.9176C66.9423 49.9796 67.1697 50.2837 67.519 50.7802C67.8687 51.2775 68.3091 51.9226 68.7572 52.5948C69.2053 53.267 69.6312 53.9212 69.9557 54.4352C70.2797 54.9486 70.4729 55.2755 70.5043 55.3613C70.5546 55.4998 70.6051 55.6385 70.6493 55.7679C70.657 55.7829 70.6645 55.7974 70.6714 55.8111C70.7229 55.9128 70.8385 56.109 70.9542 56.3055C70.9808 56.3506 71.0075 56.3958 71.0333 56.4398Z" fill="#BE592C"/>
<path d="M62.0321 127.605C62.5268 128.004 65.1143 128.205 67.1711 128.454C70.1068 128.809 73.1017 128.805 76.1149 128.407C78.4252 128.103 80.0097 126.808 81.963 125.862C85.0239 124.38 86.5099 122.215 88.1604 120.915C90.0262 119.446 91.505 118.515 92.8587 116.969C94.911 114.716 95.6096 113.421 96.0594 112.173C96.2123 111.619 96.2123 111.223 95.9124 110.815" stroke="#BE592C" stroke-width="2" stroke-linecap="round"/>
<path d="M97.8359 58.7605C98.2373 59.0724 98.1306 59.7845 98.0788 60.2123C98.078 60.2201 98.0772 60.2278 98.0764 60.2355C98.0639 60.3363 98.0662 60.4302 98.0695 60.5411C98.0773 60.8107 98.0897 61.1666 97.9051 61.9764C97.9316 62.2027 97.954 62.4384 97.97 62.669C98.0595 63.9488 98.0342 65.2773 97.9062 66.5991C97.7883 68.5682 97.0701 70.2341 96.4487 71.3733C96.4397 71.4039 96.4301 71.4359 96.4209 71.4671C96.3565 71.6853 96.2928 71.903 96.2517 72.0467C96.2095 72.1792 96.2028 72.2788 96.2321 71.9968C96.202 72.1039 96.1735 72.1594 96.1371 72.1296C96.1141 72.1003 96.1037 72.0813 96.0661 71.816C96.0558 71.7513 96.0427 71.6731 96.0224 71.5746C96.0029 71.4866 95.9534 71.1874 95.7986 70.8115C95.718 70.6169 95.6052 70.3817 95.4153 70.1066C95.1911 69.822 95.0869 69.571 94.282 69.0417C93.5649 68.586 92.538 68.4239 91.8248 68.5518C91.4624 68.6072 91.1648 68.7066 90.9256 68.8099C90.8058 68.8619 90.6999 68.9153 90.6053 68.968C90.5488 68.9999 90.5086 69.0242 90.4646 69.0518C89.8032 69.4915 89.674 69.7505 89.5522 69.9044C89.4892 70.0038 89.4581 70.0705 89.4388 70.1198C89.4001 70.2209 89.4179 70.2368 89.4316 70.2536C89.5064 70.2902 89.646 70.1754 89.753 70.1064C90.6364 68.784 91.4968 66.9937 92.1358 65.2823C92.3387 64.733 92.5199 64.1838 92.6788 63.626C92.8256 63.1102 92.9567 62.5916 93.0736 62.0697C93.074 61.7447 93.0522 61.4367 93.032 61.1472C93.0034 60.7418 92.9754 60.3834 93.0075 60.1007C93.0851 59.4208 93.4029 58.711 93.6341 58.1783C93.6719 58.0916 93.7074 58.0099 93.7391 57.9341C93.7875 57.4802 93.8274 57.0304 93.8621 56.5792C93.8996 56.5565 93.9386 56.5339 93.9784 56.511C94.3131 56.321 94.4642 56.037 94.5631 55.661L94.5199 56.0174C94.5433 55.8152 94.5532 55.5916 94.5653 55.3344C94.5815 54.993 94.6019 54.5938 94.6641 54.1292C94.7044 53.8278 94.8851 53.687 95.0326 53.5697C95.0761 53.5354 95.1166 53.5033 95.15 53.4703C95.2642 53.3571 95.1596 53.2228 95.0366 53.0612C94.8769 52.853 94.6858 52.6 94.9006 52.3061C95.5863 51.3688 95.2222 50.9013 94.9459 50.5386C94.8651 50.4326 94.7923 50.3353 94.7561 50.2404C94.6388 49.9334 94.8308 49.528 95.0676 49.2377C95.2552 49.0045 95.1579 48.4899 95.0086 48.0802C94.9518 47.9277 94.9763 47.7294 95.0065 47.4998C95.0381 47.2602 95.0763 46.9843 95.0371 46.6752C94.9391 45.8916 94.9092 45.4677 94.8853 45.1281C94.8788 45.0301 94.8735 44.9394 94.8674 44.8489C94.8487 44.5603 94.8578 44.2078 94.8742 43.8442C94.8933 43.4102 94.923 42.9628 94.9126 42.6068C94.9139 42.6035 94.9151 42.6002 94.9164 42.5968L94.8766 42.7731C95.0956 42.2561 95.3173 41.317 95.7893 40.2217C96.0266 39.6777 96.5783 39.3166 97.2744 39.2544C97.973 39.1891 98.7605 39.397 99.4981 39.7615C100.236 40.1278 100.875 40.6232 101.336 41.0839C101.794 41.5492 102.044 41.9196 102.036 42.1654C102.02 42.6111 102.07 43.2427 101.984 44.2072C101.972 44.2356 101.963 44.3294 101.95 44.3574C101.947 44.3836 101.945 44.4099 101.942 44.4363C101.86 45.2999 101.775 46.1948 101.627 47.0912C101.524 47.7179 101.411 48.3543 101.293 48.9931C101.281 49.0589 101.268 49.1255 101.256 49.1913C101.388 49.7587 101.51 50.3225 101.535 50.7124C101.555 51.0339 101.424 51.2547 101.313 51.4447C101.236 51.5765 101.169 51.6909 101.166 51.8152C101.165 51.8817 101.169 51.9736 101.174 52.0833C101.194 52.5339 101.235 53.2965 100.988 53.9765C100.878 54.2783 100.681 54.6243 100.495 54.9587C100.228 55.4344 99.9823 55.8844 100.037 56.1201C100.052 56.1819 100.061 56.2447 100.067 56.3084C100.047 56.3861 100.049 56.6279 100.019 56.7022C99.9967 57.0861 99.8303 57.488 99.6805 57.8349C99.5116 58.2297 99.3615 58.5686 99.4505 58.8013C99.5567 59.0801 99.4451 59.2723 99.2784 59.5558C99.1626 59.7527 99.0205 59.9939 98.9037 60.3373C98.7684 60.7348 98.5862 60.9934 98.431 61.2124C98.2125 61.5204 98.0475 61.7509 98.1332 62.1792C98.2278 62.657 98.2407 63.132 98.0814 63.4653C98.0091 63.6163 97.967 63.7992 97.9229 63.9885C97.8637 64.2425 97.8007 64.508 97.6609 64.7245C97.5451 64.9049 97.3445 65.0255 97.1676 65.1294C97.1123 65.1619 97.0596 65.193 97.0121 65.2241C96.9697 65.3786 96.9267 65.5376 96.8856 65.6954C96.9028 65.7279 96.9224 65.7625 96.9425 65.7985C97.043 65.9803 97.1679 66.1968 97.1899 66.4387C97.2254 66.8193 97.0524 67.082 96.865 67.3691C96.7205 67.5877 96.5686 67.8167 96.5038 68.1136C96.4608 68.3121 96.4504 68.5595 96.44 68.8014C96.428 69.151 96.4039 69.5243 96.2738 69.722C96.2234 69.801 96.1026 69.8449 95.9833 69.8854C95.9827 69.8855 95.982 69.8856 95.9813 69.8858C95.9732 69.8885 95.9652 69.8914 95.9572 69.8941C95.8431 70.4656 95.7254 71.0533 95.5894 71.6583C95.5947 71.7165 95.5996 71.7745 95.6044 71.8314C95.6179 72.1347 95.6329 72.412 95.7098 72.6609C95.7566 72.7835 95.7461 72.9928 95.6889 73.2572C95.6508 73.406 95.6111 73.5588 95.485 73.8269C95.4474 73.9032 95.4039 73.9857 95.3478 74.08C95.2809 74.185 95.2623 74.2393 95.0497 74.4961C94.9527 74.61 94.8316 74.742 94.6484 74.8995C94.5563 74.9782 94.4481 75.0632 94.3138 75.153C94.2467 75.1978 94.173 75.2438 94.0912 75.2901C93.9415 75.3741 93.7474 75.4681 93.519 75.5473C92.6709 75.9624 90.6815 75.6633 89.8972 74.7567C89.3785 74.2535 89.1704 73.808 89.0339 73.4842C88.8814 73.1099 88.8253 72.7889 88.8027 72.6707C88.7809 72.5559 88.7666 72.4574 88.7554 72.3687C88.7335 72.1917 88.724 72.0525 88.7174 71.9265C88.7034 71.7589 88.6951 71.6204 88.6886 71.4848C88.6746 71.2368 88.6559 71.0864 88.6384 70.8981C88.6401 70.8215 88.6426 70.7498 88.6452 70.6821C88.6617 70.2763 88.836 70.0632 89.002 69.8854C89.1576 69.7216 89.3103 69.5938 89.3435 69.4255C89.3596 69.3427 89.3491 69.2463 89.3361 69.1483C89.3245 69.0625 89.3117 68.9735 89.3135 68.8926C89.3159 68.8152 89.4226 68.6885 89.5501 68.5422C89.6292 68.451 89.7154 68.3536 89.7921 68.2503C89.8299 67.9252 89.8423 67.6403 89.8342 67.3881C89.7554 67.3202 89.6472 67.2571 89.5036 67.2008C89.4006 67.1603 89.2757 67.1212 89.1476 67.0834C88.9732 67.032 88.7923 66.9824 88.6487 66.9354C88.5366 66.8988 88.4933 66.8716 88.5429 66.8621C88.566 66.8576 88.6087 66.8569 88.6473 66.856C88.6916 66.855 88.7309 66.8538 88.7304 66.8473C88.73 66.8427 88.6995 66.835 88.6626 66.8259C88.6036 66.8114 88.5274 66.7936 88.5258 66.7778C88.521 66.7265 88.5399 66.6774 88.5603 66.6309C88.5636 66.6024 88.5669 66.5739 88.5702 66.5455C88.5963 66.3231 88.6198 66.1103 88.5932 65.9366C88.5637 65.7465 88.6721 65.4661 88.7772 65.1863C88.8505 64.987 88.9222 64.7934 88.9469 64.6209C88.9713 64.4546 88.8987 64.2864 88.827 64.1223C88.7413 63.9289 88.657 63.736 88.7472 63.5666C88.7656 63.5325 88.8876 63.4821 89.0402 63.4186C89.1483 63.3737 89.2719 63.3219 89.3851 63.2647C89.3704 63.0535 89.3594 62.8345 89.3523 62.6186C89.3348 62.6122 89.317 62.6055 89.2988 62.5989C89.2984 62.5988 89.298 62.5987 89.2976 62.5986C88.8868 62.4495 88.3249 62.2508 88.6199 61.8751C88.6948 61.7783 88.8422 61.7093 88.9748 61.6471C89.105 61.5859 89.2215 61.532 89.2413 61.4638C89.2637 61.3856 89.1739 61.303 89.0762 61.2132C88.9392 61.0892 88.7855 60.941 88.9043 60.7754C88.9124 60.764 88.9213 60.7518 88.9302 60.7391C89.0142 60.6158 89.139 60.436 89.404 60.2434C89.4409 59.7291 89.4941 59.1938 89.5715 58.6346C89.701 57.7055 89.898 56.6959 90.2353 55.6757C90.3992 55.1789 90.8853 54.759 91.561 54.5963C92.2388 54.4286 93.0347 54.5259 93.7997 54.7826C94.5657 55.0402 95.2603 55.4197 95.7952 55.7659C96.328 56.1163 96.6523 56.4032 96.704 56.6555C96.7862 57.0683 96.9054 57.5084 97.0407 58.0027C97.0576 58.0283 97.0741 58.0541 97.0896 58.08C97.2051 58.2741 97.4384 58.4548 97.6742 58.6344C97.7284 58.676 97.7828 58.7182 97.8359 58.7605Z" fill="#BE592C"/>
<path d="M36.6571 85.0728C37.1712 85.0728 38.7215 84.5586 42.0829 83.7796C44.159 83.5147 46.9868 83.5147 48.5721 83.9003C50.1574 84.286 50.4145 85.0572 51.4584 87.4098" stroke="black" stroke-width="2" stroke-linecap="round"/>
<path d="M67.8177 87.4098C70.147 86.8957 72.7411 84.3093 75.7247 83.1252C77.6645 83.764 79.4952 84.8079 81.1778 85.9725C82.0893 86.623 83.1176 87.3943 84.1771 88.1889" stroke="black" stroke-width="2" stroke-linecap="round"/>
<path d="M57.6905 99.8741C57.4334 99.3599 57.1764 98.8458 56.7869 98.1953C56.3973 97.5448 55.8832 96.7736 57.2893 96.3763C58.6954 95.979 62.0374 95.979 63.8876 96.3646C65.7378 96.7502 65.9948 97.5214 65.4846 98.5614C64.9743 99.6014 63.6889 100.887 62.7697 101.163C61.8505 101.44 61.3363 100.669 60.0276 99.0951" stroke="black" stroke-width="2" stroke-linecap="round"/>
<path d="M60.0276 96.758C60.0276 97.2722 60.0276 98.5653 60.1561 99.7378C60.2363 100.47 61.5778 98.059 63.1319 97.6695C63.9021 97.4764 64.6861 97.537 64.6978 97.9227C64.7094 98.3083 63.9382 99.0795 63.1553 99.3483C61.6853 99.8529 60.2924 98.3238 59.6419 97.798C59.5056 98.0434 59.7627 99.3288 59.8951 99.6053C60.0276 99.8819 60.0276 99.1107 60.0276 98.3161" stroke="black" stroke-width="2" stroke-linecap="round"/>
<path d="M59.0338 97.323H62.9316" stroke="black" stroke-width="2" stroke-linecap="round"/>
<path d="M58.1344 99.122C58.1344 99.2209 58.1344 99.3199 58.3323 99.6182C58.5301 99.9165 58.9259 100.411 59.9333 101.221" stroke="black" stroke-width="2" stroke-linecap="round"/>
<path d="M57.2349 98.8221C58.4222 100.603 59.3306 101.62 59.9288 101.819C60.527 102.018 61.2285 102.12 62.0756 101.972C62.5268 101.823 63.0215 101.527 63.3258 101.126C63.6302 100.726 63.7291 100.231 63.831 99.7216" stroke="black" stroke-width="2" stroke-linecap="round"/>
<path d="M57.5347 98.2225C58.0324 98.7172 58.6321 100.018 59.0803 100.518C59.6275 100.819 60.3291 100.921 61.0771 100.97C61.4294 101.02 61.7263 101.119 62.0321 101.221" stroke="black" stroke-width="2" stroke-linecap="round"/>
<path d="M54.2366 106.917H69.5277" stroke="#B12D15" stroke-width="2" stroke-linecap="round"/>
<path d="M54.5364 106.917C54.5364 108.698 55.229 111.397 56.8721 114.293C57.5951 115.568 59.0098 115.804 60.1162 116.008C61.2226 116.212 62.212 116.212 63.2659 115.767C65.4081 114.431 67.42 112.029 68.8681 109.434C69.4258 108.324 69.6237 107.631 69.8276 106.917" stroke="#B12D15" stroke-width="2" stroke-linecap="round"/>
<path d="M59.6335 109.916C58.5421 109.718 56.935 108.92 56.935 108.815C56.935 106.3 58.0324 112.308 59.0293 114.157C59.3859 114.818 61.5164 114.713 64.0634 114.466C66.5391 114.225 67.321 111.223 68.7737 109.174C69.0745 108.749 69.126 108.423 68.9791 108.22C66.2642 104.48 56.7372 108.611 56.4868 109.658C56.2201 110.773 56.8331 111.712 57.4792 112.26C58.414 113.054 61.0157 112.914 63.7621 112.716C65.3342 112.603 66.0258 111.121 66.6254 109.974C66.8986 109.452 66.8293 108.926 66.1367 108.671C64.1721 107.949 61.6423 108.614 60.0937 109.112C59.4897 109.306 59.4356 109.808 60.1762 110.111C60.9167 110.413 62.4998 110.611 63.5132 110.565C64.5266 110.518 64.9224 110.222 64.7305 110.019C64.0228 109.273 61.9421 110.111 60.6904 110.959C60.3258 111.206 60.9227 111.511 61.6228 111.613C65.3427 112.154 67.9267 108.92 68.276 108.172C68.4382 107.825 68.5263 107.523 67.7857 107.766C65.3689 108.559 62.0501 110.012 59.2032 110.512C58.1484 110.698 57.8405 110.419 57.4897 109.922C57.1389 109.424 56.7432 108.632 56.8361 108.818C56.929 109.004 57.5227 110.192 58.4716 110.853C59.4206 111.514 60.7069 111.613 61.0232 111.664C61.3395 111.715 60.6469 111.715 60.2406 111.418C59.8344 111.121 59.7354 110.527 59.8823 110.222C60.0292 109.916 60.425 109.916 60.431 110.064C60.437 110.213 60.0412 110.509 59.5405 110.316C58.4462 109.43 57.1419 108.519 56.5378 108.516C56.6262 108.71 57.5167 109.304 58.734 110.216" stroke="#B12D15" stroke-width="2" stroke-linecap="round"/>
</svg>
